<svg width="219" height="44" viewBox="0 0 219 44" fill="none" xmlns="http://www.w3.org/2000/svg">
<path d="M20.45 6.1L20.2 6.25C17.95 3.7 14.8 0.4 9.25 0.4H5.05V16.75L16.55 15.7V18.25L5.05 17.15V31.7C5.05 33.45 5.4 34.2 6.15 34.65V35H0V34.65C0.75 34.2 1.1 33.45 1.1 31.7V3.35C1.1 1.6 0.75 0.85 0 0.4V0H18.85L20.45 6.1Z" fill="#2A2C23"/>
<path d="M40.2002 13.9002L37.1502 18.2002L36.8002 18.0002C36.7002 15.1502 35.3002 11.4502 32.6002 11.8502C27.7002 12.6002 27.0502 25.5002 27.0502 29.7502V31.7002C27.0502 33.4502 27.4002 34.2002 28.1502 34.6502V35.0002H21.9502V34.6502C22.7502 34.2002 23.1002 33.4502 23.1002 31.7002V14.8002C23.1002 13.0502 22.9502 12.5502 21.9502 12.4002V12.0502L26.6502 10.9502H27.0502V24.3502C27.5502 18.3002 28.9502 10.9502 34.2502 10.9502C36.9502 10.9502 38.5002 11.9002 40.2002 13.9002Z" fill="#2A2C23"/>
<path d="M61.0003 35.0002H55.9503V28.0002C54.6503 32.4002 51.9003 35.3002 47.1003 35.3002C43.0003 35.3002 39.0003 33.3502 38.3503 29.7502C37.5003 24.6502 40.5503 21.6502 44.4003 20.0502C43.1003 17.1502 44.6503 10.9502 51.3503 10.9502C55.5003 10.9502 59.9003 13.1502 59.9003 19.3002V31.7002C59.9003 33.4502 60.2503 34.2002 61.0003 34.6502V35.0002ZM55.9503 27.1002V19.4002C55.7003 19.3002 54.5003 18.9502 52.9503 18.9502C47.5003 18.9502 40.1003 21.6502 42.2503 30.4502C42.9003 33.1502 45.8003 34.8002 48.3003 34.6502C52.6503 34.4002 54.9503 30.7002 55.9503 27.1002ZM44.9003 19.8502C47.6003 18.8502 50.6003 18.5002 52.9503 18.5002C54.1003 18.5002 55.1003 18.7002 55.9503 18.9502V18.6002C55.9503 14.8002 54.4503 11.4502 50.9003 11.4502C46.4003 11.4502 43.4003 15.8002 44.9003 19.8502Z" fill="#2A2C23"/>
<path d="M94.55 37.4998C94.55 41.4498 89.55 43.9998 85.3 43.9998C81.7 43.9998 79.95 42.0498 78.75 40.3998C76.45 41.7998 73.95 43.0998 71.6 43.2498C68.95 43.4498 66.95 42.4998 66.9 40.1998C66.8 37.1498 71.6 35.4998 75.1 35.1498C69.25 34.4498 64.5 30.5498 64.5 24.1998C64.5 15.9498 71.4 10.9498 78.1 10.9498C80.1 10.9498 82 11.3498 83.7 12.0498L92.25 9.5498L92.55 12.0498L84.5 12.3998C88.1 14.1498 90.6 17.4998 90.6 22.0498C90.6 30.0498 83.75 35.2998 77 35.2998C76.85 35.2998 76.7 35.2998 76.5 35.2498C73.2 35.3998 69.35 36.5498 69.6 39.5498C69.7 41.1998 70.55 42.3998 72.4 42.3998C74.95 42.4498 77.85 40.4998 81.05 38.5498C84.75 36.3498 87.85 33.7498 90.4 33.6498C93.4 33.5998 94.55 35.2998 94.55 37.4998ZM80.9 34.3998C86.55 32.7498 88.15 26.4998 86.4 20.4498C84.65 14.4498 79.95 10.1998 74.25 11.8498C68.55 13.4998 67 19.7498 68.75 25.7998C70.5 31.7998 75.2 36.0998 80.9 34.3998ZM89 34.6498C87.45 34.8498 84.25 36.9998 81.35 38.7998L79.1 40.1498C80.05 41.5498 81.6 43.5998 85.3 43.6498C89.15 43.6998 91.3 41.6498 91.5 38.3498C91.6 36.0498 91 34.3498 89 34.6498Z" fill="#2A2C23"/>
<path d="M114.8 13.9002L111.75 18.2002L111.4 18.0002C111.3 15.1502 109.9 11.4502 107.2 11.8502C102.3 12.6002 101.65 25.5002 101.65 29.7502V31.7002C101.65 33.4502 102 34.2002 102.75 34.6502V35.0002H96.5498V34.6502C97.3498 34.2002 97.6998 33.4502 97.6998 31.7002V14.8002C97.6998 13.0502 97.5498 12.5502 96.5498 12.4002V12.0502L101.25 10.9502H101.65V24.3502C102.15 18.3002 103.55 10.9502 108.85 10.9502C111.55 10.9502 113.1 11.9002 114.8 13.9002Z" fill="#2A2C23"/>
<path d="M135.6 35.0002H130.55V28.0002C129.25 32.4002 126.5 35.3002 121.7 35.3002C117.6 35.3002 113.6 33.3502 112.95 29.7502C112.1 24.6502 115.15 21.6502 119 20.0502C117.7 17.1502 119.25 10.9502 125.95 10.9502C130.1 10.9502 134.5 13.1502 134.5 19.3002V31.7002C134.5 33.4502 134.85 34.2002 135.6 34.6502V35.0002ZM130.55 27.1002V19.4002C130.3 19.3002 129.1 18.9502 127.55 18.9502C122.1 18.9502 114.7 21.6502 116.85 30.4502C117.5 33.1502 120.4 34.8002 122.9 34.6502C127.25 34.4002 129.55 30.7002 130.55 27.1002ZM119.5 19.8502C122.2 18.8502 125.2 18.5002 127.55 18.5002C128.7 18.5002 129.7 18.7002 130.55 18.9502V18.6002C130.55 14.8002 129.05 11.4502 125.5 11.4502C121 11.4502 118 15.8002 119.5 19.8502Z" fill="#2A2C23"/>
<path d="M163.8 34.6502V35.0002H157.6V34.6502C158.4 34.2002 158.6 33.3502 158.45 31.7002C158.3 30.0502 157.55 21.6002 157.3 19.0002C156.95 15.2502 155.1 11.0002 150.8 11.8502C145.2 12.9502 144.15 23.4002 144.15 27.6002V31.7002C144.15 33.4502 144.5 34.2002 145.3 34.6502V35.0002H139.1V34.6502C139.85 34.2002 140.2 33.4502 140.2 31.7002V14.8002C140.2 13.0502 140.05 12.5502 139.1 12.4002V12.0502L143.8 10.9502H144.15V23.3502C144.8 17.7502 146.5 10.9502 153 10.9502C157.1 10.9502 160.6 13.7502 161.2 19.7502C161.7 24.6002 162.2 29.8502 162.4 31.7002C162.6 33.5002 163.05 34.2002 163.8 34.6502Z" fill="#2A2C23"/>
<path d="M182.05 34.4002C187 33.9002 189.7 29.5002 190.5 28.1002L190.8 28.2502C189.25 31.0502 186.3 34.9502 180.35 35.3002C173.45 35.6502 166.55 31.9002 166.35 23.6502C166.1 15.0002 173.95 10.9502 179.45 10.9502C182.3 10.9502 186.3 12.2502 188.9 13.6002L188.15 17.7502H187.85C186.65 14.7502 181.9 10.4502 177.2 11.5502C171.05 12.9502 168.8 20.8502 170.9 26.8502C172.75 32.1002 177 34.9002 182.05 34.4002Z" fill="#2A2C23"/>
<path d="M218.15 27.0502C217.85 30.6002 214.7 35.3002 207.6 35.3002C200.5 35.3002 194.05 31.9002 193.85 23.6502C193.6 15.0002 201.45 11.2502 206.95 10.9502C211.2 10.7502 217.05 12.8002 217.75 18.8502H213.1C215.95 19.6002 218.55 22.5002 218.15 27.0502ZM211.05 18.8502H198.1C197.45 21.5002 197.6 24.4502 198.45 26.8502C200.3 32.1002 204.05 34.4002 209.15 34.2002C213.45 34.0002 217.2 31.0502 217.7 27.1502C218.3 21.9502 214.85 18.8502 211.05 18.8502ZM198.2 18.4502H214.15C213.5 14.1002 209.6 10.6002 204.7 11.5502C201.3 12.2002 199.1 15.0502 198.2 18.4502Z" fill="#2A2C23"/>
</svg>
