<svg width="86" height="56" viewBox="0 0 86 56" fill="none" xmlns="http://www.w3.org/2000/svg">
<path d="M60.2 2.02997C58.55 2.02997 56.93 2.19 55.37 2.48999V0H0V55.37H55.37V52.89C56.93 53.19 58.55 53.35 60.2 53.35C74.37 53.35 85.86 41.86 85.86 27.69C85.86 13.52 74.37 2.02997 60.2 2.02997ZM53.37 53.37H2V2H53.37V53.37ZM60.2 34.83C58.34 34.83 56.64 34.12 55.37 32.94V22.44C56.64 21.26 58.34 20.55 60.2 20.55C64.14 20.55 67.34 23.74 67.34 27.69C67.34 31.63 64.14 34.83 60.2 34.83Z" fill="#2A2C23"/>
<path d="M60.1994 26.5322C59.5612 26.5322 59.0439 27.0496 59.0439 27.6877C59.0439 28.3259 59.5612 28.8432 60.1994 28.8432C60.8375 28.8432 61.3548 28.3259 61.3548 27.6877C61.3548 27.0496 60.8375 26.5322 60.1994 26.5322Z" fill="#2A2C23"/>
<path d="M15.3568 9.00122L9.99381 4L4.54004 9.08588L9.47226 13.6854C9.15999 13.7604 8.81548 13.9496 8.51285 14.2318C7.90759 14.7962 7.69833 15.5198 8.04604 15.844C8.39375 16.1683 9.16641 15.9701 9.77167 15.4057C10.2868 14.9253 10.5154 14.3339 10.3544 13.9676C10.3319 13.9046 10.29 13.8475 10.2385 13.7995L7.30919 11.0678L12.1191 6.58235L14.6003 8.8962C14.2891 8.97551 13.9465 9.1644 13.6454 9.44526C13.0401 10.0097 12.8315 10.7304 13.1796 11.055C13.5276 11.3796 14.3005 11.1851 14.9058 10.6206C15.5111 10.0562 15.7196 9.33544 15.3716 9.01087C15.3673 9.00686 15.3612 9.00506 15.3568 9.00122ZM10.6635 5.22494L11.1293 5.6593L6.31937 10.1447L5.85359 9.71036L10.6635 5.22494Z" fill="#2A2C23"/>
<path d="M22.6064 40.0813C24.0511 39.9321 24.8434 38.6458 25.0857 38.2357L25.1696 38.2823C24.7129 39.1026 23.846 40.2397 22.103 40.3423C20.0804 40.4448 18.0577 39.3449 18.0018 36.9308C17.9272 34.3954 20.2295 33.2117 21.842 33.2117C22.6809 33.2117 23.846 33.5938 24.6104 33.9853L24.3867 35.197H24.3028C23.9486 34.3209 22.5597 33.0532 21.1802 33.3794C19.3813 33.7989 18.7195 36.1105 19.3347 37.8722C19.8753 39.4101 21.1243 40.2304 22.6064 40.0813Z" fill="#2A2C23"/>
<path d="M37.6042 34.0692L36.7094 35.3275L36.6068 35.2716C36.5789 34.4327 36.1687 33.3515 35.3764 33.4727C33.941 33.6964 33.7453 37.4714 33.7453 38.7204V39.289C33.7453 39.8016 33.8478 40.0253 34.0715 40.1558C34.0715 40.1838 34.0715 40.2584 34.0715 40.2584H32.2539C32.2539 40.2584 32.2539 40.1838 32.2539 40.1558C32.4869 40.0253 32.5895 39.8016 32.5895 39.289V34.3395C32.5895 33.8269 32.5429 33.6777 32.2539 33.6404C32.2539 33.6125 32.2539 33.5379 32.2539 33.5379L33.6334 33.2117H33.7546V37.1358C33.9037 35.3648 34.3139 33.2117 35.8611 33.2117C36.6441 33.2117 37.1008 33.4913 37.6042 34.0692Z" fill="#2A2C23"/>
<path d="M31.3492 39.0467H29.8672V36.9961C29.485 38.2824 28.6834 39.1399 27.2759 39.1399C26.0735 39.1399 24.8991 38.562 24.7126 37.5087C24.461 36.0174 25.3558 35.1319 26.4836 34.6658C26.1015 33.8176 26.5582 32 28.5249 32C29.7367 32 31.0323 32.6432 31.0323 34.4514V38.0866C31.0323 38.5993 31.1348 38.823 31.3585 38.9535C31.3492 38.9721 31.3492 39.0467 31.3492 39.0467ZM29.8672 36.7351V34.4794C29.7926 34.4514 29.4384 34.3489 28.991 34.3489C27.3971 34.3489 25.2253 35.1412 25.8591 37.7231C26.0456 38.5154 26.9031 39.0001 27.6301 38.9535C28.9071 38.8696 29.5782 37.7884 29.8672 36.7351ZM26.6328 34.6099C27.4251 34.3209 28.3012 34.2184 28.991 34.2184C29.3266 34.2184 29.6248 34.2743 29.8672 34.3489V34.2464C29.8672 33.1372 29.4291 32.1491 28.3851 32.1491C27.0709 32.1491 26.1947 33.4168 26.6328 34.6099Z" fill="#2A2C23"/>
<path d="M42.702 34.8243L41.453 37.9282L41.919 39.0374H40.7632L38.9456 34.759C38.3304 33.3236 38.0229 32.6898 37.3145 32.1025V32H39.5608V32.1212C39.1787 32.5127 39.3092 32.9135 39.6447 33.7337L41.3971 37.807L42.5995 34.8149C43.1401 33.4634 43.2985 32.6618 42.6554 32.1212V32H44.3891V32.1212C43.7646 32.7643 43.2519 33.482 42.702 34.8243Z" fill="#2A2C23"/>
<path d="M50.3457 37.5554C50.2618 38.5994 49.339 39.9696 47.2511 39.9696C45.2284 39.9696 43.2803 38.9722 43.2244 36.5581C43.1499 34.0228 45.4521 32.9229 47.0647 32.839C48.3137 32.7831 50.0288 33.3796 50.2338 35.1506C50.1033 35.1506 49.1899 35.1506 49.1899 35.1506H48.8636C49.7025 35.3743 50.4669 36.2225 50.3457 37.5554ZM48.2671 35.1506H44.4734C44.287 35.9243 44.3243 36.7911 44.576 37.4995C45.1166 39.0375 46.2165 39.7086 47.7078 39.6527C48.9662 39.5967 50.0661 38.7299 50.2152 37.5834C50.3923 36.0641 49.3856 35.1506 48.2671 35.1506ZM44.5014 35.0388H49.1806C48.9941 33.7618 47.8476 32.7365 46.4122 33.0161C45.4149 33.2025 44.7624 34.0414 44.5014 35.0388Z" fill="#2A2C23"/>
<path d="M32.8133 48.8524C32.8133 48.8803 32.8133 48.9549 32.8133 48.9549H31.0144C31.0144 48.9549 31.0144 48.8803 31.0144 48.8524C31.2381 48.7219 31.3033 48.4702 31.266 47.9855C31.2101 47.5008 31.0051 45.0214 30.9305 44.2664C30.8093 43.1665 30.3899 41.9175 29.2434 42.1692C27.8918 42.4581 27.7241 44.7325 27.7054 46.2704V47.9855C27.7054 48.4982 27.8079 48.7219 28.0317 48.8524C28.0317 48.8803 28.0317 48.9549 28.0317 48.9549H26.2141C26.2141 48.9549 26.2141 48.8803 26.2141 48.8524C26.4378 48.7219 26.5403 48.4982 26.5403 47.9855V44.2664C26.5403 43.1572 26.0276 41.9548 24.8811 42.1692C23.2406 42.4768 23.1661 45.5434 23.1661 46.7831V47.9855C23.1661 48.4982 23.2873 48.7219 23.5016 48.8524C23.5016 48.8803 23.5016 48.9549 23.5016 48.9549H21.6934C21.6934 48.9549 21.6934 48.8803 21.6934 48.8524C21.9171 48.7219 22.0289 48.4982 22.0289 47.9855V43.036C22.0289 42.5234 21.9823 42.3743 21.6934 42.337C21.6934 42.309 21.6934 42.2344 21.6934 42.2344L23.0729 41.9082H23.1754V45.1612C23.3339 43.6046 23.7719 41.9082 25.5336 41.9082C26.6615 41.9082 27.6309 42.8776 27.6868 44.4901L27.7054 44.6486C27.8825 43.2225 28.4231 41.9082 29.9052 41.9082C31.061 41.9082 31.8812 42.7751 32.0583 44.4901C32.2168 45.9069 32.3473 47.4542 32.4125 47.9948C32.4591 48.5168 32.5896 48.7219 32.8133 48.8524Z" fill="#2A2C23"/>
<path d="M40.0371 45.5808C39.9532 46.6248 39.0304 47.995 36.9425 47.995C34.9198 47.995 32.9718 46.9976 32.9158 44.5835C32.8413 42.0482 35.1436 40.9483 36.7561 40.8644C38.0051 40.8085 39.7202 41.405 39.9252 43.176C39.7947 43.176 38.8813 43.176 38.8813 43.176H38.555C39.3939 43.3997 40.1583 44.2479 40.0371 45.5808ZM37.9585 43.176H34.1648C33.9784 43.9497 34.0157 44.8165 34.2674 45.5249C34.808 47.0629 35.9079 47.734 37.3992 47.6781C38.6576 47.6221 39.7575 46.7553 39.9066 45.6088C40.0837 44.0895 39.0677 43.176 37.9585 43.176ZM34.1928 43.0642H38.872C38.6855 41.7872 37.5391 40.7619 36.1036 41.0415C35.0969 41.2279 34.4538 42.0668 34.1928 43.0642Z" fill="#2A2C23"/>
<path d="M47.1113 46.7459C47.0274 47.7898 46.1046 49.16 44.0167 49.16C41.9941 49.16 40.046 48.1627 39.99 45.7485C39.9155 43.2132 42.2178 42.1133 43.8303 42.0294C45.0793 41.9735 46.7944 42.5701 46.9995 44.341C46.869 44.341 45.9555 44.341 45.9555 44.341H45.6293C46.4588 44.5648 47.2232 45.413 47.1113 46.7459ZM45.0234 44.341H41.2297C41.0433 45.1147 41.0806 45.9815 41.3323 46.6899C41.8729 48.2279 42.9728 48.899 44.4641 48.8431C45.7225 48.7872 46.8224 47.9203 46.9715 46.7738C47.1486 45.2545 46.1419 44.341 45.0234 44.341ZM41.2577 44.2292H45.9369C45.7504 42.9522 44.604 41.9269 43.1685 42.2065C42.1712 42.393 41.528 43.2318 41.2577 44.2292Z" fill="#2A2C23"/>
<path d="M47.6331 47.9296C47.7876 47.9296 47.9128 47.8044 47.9128 47.65C47.9128 47.4956 47.7876 47.3704 47.6331 47.3704C47.4787 47.3704 47.3535 47.4956 47.3535 47.65C47.3535 47.8044 47.4787 47.9296 47.6331 47.9296Z" fill="#2A2C23"/>
<path d="M46.7572 49.1601C46.9116 49.1601 47.0368 49.0349 47.0368 48.8805C47.0368 48.726 46.9116 48.6008 46.7572 48.6008C46.6027 48.6008 46.4775 48.726 46.4775 48.8805C46.4775 49.0349 46.6027 49.1601 46.7572 49.1601Z" fill="#2A2C23"/>
</svg>
