<svg width="54" height="59" viewBox="0 0 54 59" fill="none" xmlns="http://www.w3.org/2000/svg">
<path d="M48.1304 14.087H28.1739V9.3913H34.0435C34.6926 9.3913 35.2174 8.86539 35.2174 8.21739V4.69565H43.4348C44.084 4.69565 44.6087 4.16974 44.6087 3.52174C44.6087 2.87374 44.084 2.34783 43.4348 2.34783H35.2174V1.17391C35.2174 0.525913 34.6926 0 34.0435 0H19.9565C19.3085 0 18.7826 0.525913 18.7826 1.17391V8.21739C18.7826 8.86539 19.3085 9.3913 19.9565 9.3913H25.8261V14.087H5.86957C2.63309 14.087 0 16.72 0 19.9565V52.8261C0 56.0626 2.63309 58.6956 5.86957 58.6956H48.1304C51.3669 58.6956 54 56.0626 54 52.8261V19.9565C54 16.72 51.3669 14.087 48.1304 14.087ZM21.1304 2.34783H32.8696V7.04348H21.1304V2.34783ZM5.86957 16.4348H48.1304C50.0721 16.4348 51.6522 18.0149 51.6522 19.9565V30.5217H42.2609V24.6522C42.2609 24.0042 41.7361 23.4783 41.087 23.4783H12.913C12.265 23.4783 11.7391 24.0042 11.7391 24.6522V30.5217H2.34783V19.9565C2.34783 18.0149 3.92791 16.4348 5.86957 16.4348ZM14.087 25.8261H39.913V46.9565H14.087V25.8261ZM48.1304 56.3478H5.86957C3.92791 56.3478 2.34783 54.7677 2.34783 52.8261V32.8696H11.7391V48.1304C11.7391 48.7796 12.265 49.3043 12.913 49.3043H41.087C41.7361 49.3043 42.2609 48.7796 42.2609 48.1304V32.8696H51.6522V52.8261C51.6522 54.7677 50.0721 56.3478 48.1304 56.3478Z" fill="#2A2C23"/>
</svg>
