<svg width="97" height="45" viewBox="0 0 97 45" fill="none" xmlns="http://www.w3.org/2000/svg">
<path d="M96.8873 31.4399C96.916 31.383 96.9495 31.3355 96.9639 31.2738C96.983 31.2122 96.9782 31.1505 96.983 31.0841C96.9878 31.0319 97.0069 30.9797 96.9974 30.9227C96.9974 30.9132 96.9878 30.9037 96.9878 30.8943C96.9878 30.8848 96.9926 30.8753 96.9878 30.8658L96.8921 30.2917C95.2745 20.5125 95.1693 20.4603 94.5663 20.1662C94.2887 20.0286 93.9441 20.0334 93.6666 20.1757C89.7662 22.216 87.2537 21.7747 84.593 21.3097C82.8128 20.9966 80.9655 20.6739 78.6875 21.0393C76.8594 21.3335 74.1746 23.1744 71.5855 25.0961V12.8254C72.7197 12.5597 73.5668 11.5538 73.5668 10.3486V2.54802C73.5668 1.14362 72.4135 0 70.9969 0L26.1019 0.00474483C24.6854 0.00474483 23.532 1.14825 23.532 2.55277V10.3533C23.532 11.5585 24.3838 12.5644 25.518 12.8301V25.0717C22.8955 23.1215 20.1581 21.2283 18.306 20.9342C16.028 20.5689 14.1856 20.8915 12.4005 21.2047C9.73968 21.6697 7.22718 22.1109 3.32697 20.0707C3.04941 19.9283 2.70962 19.9236 2.42726 20.0612C1.82905 20.3554 1.71899 20.4076 0.106248 30.1819L0.0105344 30.7607V30.7892C0.0105344 30.7987 0.000963079 30.8082 0.000963079 30.8177C-0.00382228 30.8746 0.0105347 30.9268 0.0153201 30.979C0.0201067 31.0454 0.0153201 31.1071 0.0344628 31.1688C0.0488201 31.2305 0.0823201 31.2827 0.111033 31.3349C0.139748 31.3918 0.158891 31.4487 0.197177 31.4962C0.235462 31.5436 0.283318 31.5816 0.331181 31.6195C0.379037 31.6622 0.417323 31.7049 0.474755 31.7382C0.527398 31.7714 0.594397 31.7856 0.656613 31.8046C0.709255 31.8236 0.752326 31.852 0.809754 31.8615H0.838468C0.84804 31.8615 0.85761 31.871 0.867182 31.871C11.1038 32.9244 14.1623 34.6752 18.2775 38.1437C24.5229 43.4104 27.1884 44.3642 32.5295 44.7201C34.7787 44.8719 37.7267 44.8814 39.4879 44.8909C39.842 44.8909 40.1387 44.8957 40.3636 44.8957H40.6795C43.546 44.8957 45.2163 44.4971 46.0729 43.6145C46.8482 42.8222 46.8242 42.1152 46.6711 41.6644C46.4845 41.1282 46.0298 40.7297 45.3263 40.4022H51.9161C51.0691 40.7438 50.5378 41.1709 50.332 41.7687C50.1789 42.2195 50.155 42.9217 50.9302 43.7189C51.7916 44.6014 53.4618 45 56.3236 45H56.6395C56.8644 45 57.1611 44.9953 57.5153 44.9953C59.2764 44.9858 62.2292 44.9763 64.4784 44.8245C69.8193 44.4686 72.4849 43.5149 78.7304 38.2481C82.8461 34.7796 85.9041 33.0287 96.1407 31.9754C96.1503 31.9754 96.1599 31.9659 96.1694 31.9659C96.179 31.9659 96.1886 31.9706 96.1981 31.9659C96.2556 31.9564 96.2986 31.9279 96.3513 31.9089C96.4135 31.89 96.4757 31.8757 96.5331 31.8425C96.5858 31.8093 96.6289 31.7666 96.6767 31.7239C96.7246 31.6812 96.7724 31.648 96.8107 31.6005C96.849 31.5531 96.8681 31.4961 96.8969 31.4392L96.8873 31.4399ZM65.8951 29.8362C66.1775 30.9749 67.0293 32.7021 69.5944 32.7021C69.6136 32.7021 69.6375 32.6973 69.6566 32.6973V34.4198C68.9627 35.2311 68.2497 36.0188 67.3882 36.8064C66.565 37.5608 64.5982 38.0827 62.4015 38.486H35.2183C32.7824 38.0685 30.5284 37.5228 29.6286 36.7019C28.8103 35.9522 28.1259 35.2025 27.4655 34.4386V32.5881C29.9876 32.5644 30.8347 30.8563 31.1171 29.727C31.3994 28.5787 30.2413 27.9998 29.0113 27.383C28.4897 27.1221 27.9058 26.8231 27.4655 26.5147V12.897H44.5022V30.0494C44.5022 30.4195 44.7176 30.7564 45.0526 30.9177C45.1866 30.9841 45.3301 31.0126 45.4737 31.0126C45.6891 31.0126 45.9044 30.9414 46.0767 30.8038L48.5556 28.8537L50.982 30.7991C51.2739 31.0316 51.6712 31.079 52.0109 30.9177C52.3459 30.7564 52.5613 30.4195 52.5613 30.0494V12.897H69.6605V26.5427L69.6413 26.5569C69.1962 26.889 68.5645 27.2069 68.0094 27.4869C66.7795 28.1037 65.6166 28.6826 65.9037 29.8308L65.8951 29.8362ZM46.4364 12.9024H50.6143V28.0385L49.1642 26.876C48.8101 26.5913 48.3076 26.5913 47.9535 26.8712L46.4412 28.0622V12.903L46.4364 12.9024ZM71.6324 2.55395V10.3545C71.6324 10.6914 71.3453 10.9808 71.0007 10.9808H53.7006V1.93242H71.0007C71.3405 1.93242 71.6324 2.21712 71.6324 2.55873V2.55395ZM51.7669 1.92763V10.976H45.2823V1.92763H51.7669ZM25.4793 2.55395C25.4793 2.21707 25.7664 1.92763 26.1062 1.92763H43.3438V10.976H26.1062C25.7664 10.976 25.4793 10.6913 25.4793 10.3497V2.54916V2.55395ZM44.6844 42.2824C44.4739 42.5006 43.6268 43.0083 40.3869 42.9751C40.1572 42.9751 39.8557 42.9704 39.4968 42.9704C37.7595 42.9609 34.8451 42.9514 32.6629 42.8043C27.7289 42.4769 25.4078 41.6323 19.5356 36.6787C15.2524 33.0678 12.0412 31.1937 2.09217 30.0691C2.73345 26.1974 3.19765 23.583 3.47522 22.2733C7.38988 24.0289 10.1034 23.5497 12.7403 23.0895C14.4392 22.7905 16.0424 22.5106 17.9998 22.8238C19.7082 23.0989 23.2018 25.7276 25.7525 27.6446L26.2024 27.9814C26.7862 28.418 27.4993 28.7786 28.131 29.0965C28.4373 29.2483 28.8584 29.4618 29.1168 29.6231C28.844 30.3396 28.2267 30.9043 26.4464 30.5626C24.7187 30.2352 23.5894 29.533 22.1632 28.6457C20.8232 27.8106 19.3014 26.8665 16.899 25.9317C16.4013 25.7371 15.8365 25.9839 15.6404 26.4773C15.4442 26.9708 15.693 27.5307 16.1907 27.7252C17.3202 28.1617 18.2438 28.6077 19.0477 29.0442C21.9383 30.8709 23.4697 32.6929 25.0825 34.6193C26.0348 35.7581 27.0254 36.9347 28.3032 38.1115C30.0739 39.7294 34.314 40.3368 38.4201 40.9204C40.6264 41.2336 43.8758 41.6986 44.718 42.2347C44.7037 42.2489 44.6941 42.2632 44.675 42.2774L44.6844 42.2824ZM77.4714 36.7879C71.5993 41.7415 69.2783 42.5813 64.3441 42.9135C62.157 43.0606 59.2425 43.0701 57.5054 43.0796C57.1465 43.0796 56.8498 43.0843 56.6201 43.0843C53.3802 43.1175 52.5379 42.6098 52.3226 42.3916L52.2795 42.3489C53.1218 41.808 56.3761 41.3477 58.5774 41.0346C62.6788 40.451 66.9236 39.8484 68.6943 38.2257C69.9769 37.0537 70.9627 35.877 71.915 34.7335C73.5278 32.8071 75.0544 30.9851 77.9498 29.1583C78.7538 28.7218 79.6775 28.2805 80.8068 27.8393C81.3045 27.6448 81.5534 27.0896 81.3571 26.5915C81.1609 26.098 80.601 25.8513 80.0986 26.0458C77.6962 26.9806 76.1744 27.9248 74.8343 28.7599C73.4081 29.6472 72.2836 30.3447 70.5511 30.6768C68.7757 31.0137 68.1583 30.449 67.8807 29.7373C68.1391 29.576 68.5603 29.3672 68.8666 29.2106C69.4983 28.8927 70.2162 28.5369 70.7952 28.0956L71.245 27.7587C73.7957 25.8418 77.2845 23.2132 78.9978 22.9379C80.9552 22.6248 82.5582 22.9047 84.2573 23.2036C86.8893 23.6639 89.6077 24.1384 93.5223 22.3875C93.7999 23.6923 94.2641 26.3115 94.9054 30.1833C84.9607 31.3078 81.745 33.1821 77.4619 36.7928L77.4714 36.7879Z" fill="#2A2C23"/>
</svg>
