<svg width="321" height="49" viewBox="0 0 321 49" fill="none" xmlns="http://www.w3.org/2000/svg">
<path d="M18.3 15.2L17.3 19.8H17C15.4 15.5 12.2 12.4 9.4 12.4C6 12.4 4.1 14.3 3.8 16.4C3.1 23.1 20 21.3 19.4 29.5C19.1 33.5 15.4 36.4 9.8 36.4C5.8 36.4 2.7 35.1 0 33.1L1.1 28.1H1.4C3.1 31.6 6.9 35.8 11.3 35.8C14.9 35.8 17.6 34 17.9 31.8C18.9 25.3 1.4 28.1 2.6 18.3C3 15 4.8 12 10.3 12C12.9 12 16.3 13.7 18.3 15.2Z" fill="#2A2C23"/>
<path d="M47.8 21.9C48.1 34.3 36.6 36.4 31 36.4C29.9 36.4 28.9 36.2 28 35.9V44.5C28 46.3 28.2 46.8 29.1 46.9C29.1 47 29.1 47.3 29.1 47.3L24.4 48.4H24.1V15.9C24.1 14.1 24 13.6 23 13.5C23 13.4 23 13.2 23 13.2L27.7 12.1H28.1V25.8C29 19.9 31.5 12 38.5 12C42.6 12 47.6 15.5 47.8 21.9ZM43.9 21.2C43.6 16.9 40.6 12.1 36.3 12.9C30.7 14 28 24.5 28 28.7V35.7C28.3 35.8 29.4 36.2 31 36.2C35.9 36 44.6 33.9 43.9 21.2Z" fill="#2A2C23"/>
<path d="M75.6996 28.1C75.3996 31.6 72.1996 36.4 65.0996 36.4C58.1996 36.4 51.4996 33 51.2996 24.7C51.0996 16.1 58.9996 12.3 64.4996 12C68.7996 11.8 74.5996 13.9 75.2996 19.9C74.7996 19.9 71.6996 19.9 71.6996 19.9H70.5996C73.4996 20.7 76.0996 23.6 75.6996 28.1ZM68.5996 19.9H55.5996C54.9996 22.6 55.0996 25.5 55.9996 27.9C57.8996 33.2 61.5996 35.5 66.6996 35.3C70.9996 35.1 74.7996 32.1 75.2996 28.2C75.8996 23 72.3996 19.9 68.5996 19.9ZM55.6996 19.5H71.6996C70.9996 15.1 67.0996 11.6 62.1996 12.6C58.7996 13.3 56.5996 16.1 55.6996 19.5Z" fill="#2A2C23"/>
<path d="M95.0003 35.5C100 35 102.7 30.6 103.5 29.2L103.8 29.4C102.3 32.2 99.3003 36.1 93.3003 36.4C86.4003 36.8 79.5003 33 79.3003 24.7C79.0003 16.1 86.9003 12 92.4003 12C95.3003 12 99.3003 13.3 101.9 14.7L101.1 18.9H100.8C99.6003 15.9 94.8003 11.6 90.1003 12.7C83.9003 14.1 81.7003 22 83.8003 28C85.7003 33.2 89.9003 36 95.0003 35.5Z" fill="#2A2C23"/>
<path d="M112.4 35.7001C112.4 35.8 112.4 36 112.4 36H106.2V35.7001C107 35.2001 107.3 34.5 107.3 32.7001V15.9C107.3 14.1 107.2 13.6 106.2 13.5C106.2 13.4 106.2 13.2 106.2 13.2L110.9 12.1H111.3V32.9001C111.3 34.5001 111.6 35.3 112.4 35.7001ZM106.8 5.60005C106.8 4.30005 107.9 3.30005 109.2 3.30005C110.5 3.30005 111.6 4.30005 111.6 5.60005C111.6 6.90005 110.6 8.00005 109.2 8.00005C107.9 8.00005 106.8 6.90005 106.8 5.60005Z" fill="#2A2C23"/>
<path d="M138.2 36.1001H133.1V29.1001C131.8 33.5001 129 36.4001 124.2 36.4001C120.1 36.4001 116.1 34.4001 115.4 30.9001C114.6 25.8001 117.6 22.8001 121.5 21.2001C120.2 18.3001 121.8 12.1001 128.5 12.1001C132.7 12.1001 137.1 14.3001 137.1 20.5001V32.9001C137.1 34.7001 137.4 35.4001 138.2 35.9001C138.2 35.8001 138.2 36.1001 138.2 36.1001ZM133.2 28.2001V20.5001C132.9 20.4001 131.8 20.0001 130.2 20.0001C124.7 20.0001 117.3 22.7001 119.5 31.5001C120.1 34.2001 123.1 35.8001 125.6 35.7001C129.9 35.5001 132.2 31.8001 133.2 28.2001ZM122.1 20.9001C124.8 19.9001 127.8 19.6001 130.2 19.6001C131.3 19.6001 132.3 19.8001 133.2 20.1001V19.7001C133.2 15.9001 131.7 12.5001 128.1 12.5001C123.6 12.5001 120.6 16.9001 122.1 20.9001Z" fill="#2A2C23"/>
<path d="M147.9 35.7C147.9 35.8 147.9 36 147.9 36H141.7V35.7C142.5 35.2 142.8 34.5 142.8 32.7V3.8C142.8 2 142.7 1.5 141.7 1.4C141.7 1.3 141.7 1 141.7 1L146.4 0H146.8V32.8C146.8 34.5 147.1 35.3 147.9 35.7Z" fill="#2A2C23"/>
<path d="M181 15.1999L180 19.7999H179.7C178.1 15.4999 174.9 12.3999 172.1 12.3999C168.7 12.3999 166.8 14.2999 166.5 16.3999C165.8 23.0999 182.7 21.2999 182.1 29.4999C181.8 33.4999 178.1 36.3999 172.5 36.3999C168.5 36.3999 165.4 35.0999 162.7 33.0999L163.8 28.0999H164.1C165.8 31.5999 169.6 35.7999 174 35.7999C177.6 35.7999 180.3 33.9999 180.6 31.7999C181.6 25.2999 164.1 28.0999 165.3 18.2999C165.7 14.9999 167.5 12.0999 173 12.0999C175.6 11.9999 179 13.6999 181 15.1999Z" fill="#2A2C23"/>
<path d="M209.6 28.1C209.3 31.6 206.1 36.4 199 36.4C192.1 36.4 185.4 33 185.2 24.7C184.9 16 192.8 12.3 198.3 12C202.6 11.8 208.4 13.9 209.1 19.9C208.6 19.9 205.5 19.9 205.5 19.9H204.4C207.4 20.7 210 23.6 209.6 28.1ZM202.5 19.9H189.5C188.9 22.6 189 25.5 189.9 27.9C191.8 33.2 195.5 35.5 200.6 35.3C204.9 35.1 208.7 32.1 209.2 28.2C209.8 23 206.3 19.9 202.5 19.9ZM189.7 19.5H205.7C205 15.1 201.1 11.6 196.2 12.6C192.8 13.3 190.6 16.1 189.7 19.5Z" fill="#2A2C23"/>
<path d="M231.4 15.0001L228.3 19.3001L227.9 19.1001C227.8 16.2001 226.4 12.5001 223.7 12.9001C218.8 13.7001 218.1 26.6001 218.1 30.8001V32.8001C218.1 34.6001 218.5 35.3001 219.2 35.8001C219.2 35.9001 219.2 36.1001 219.2 36.1001H213V35.8001C213.8 35.3001 214.2 34.6001 214.2 32.8001V15.9001C214.2 14.1001 214 13.6001 213 13.5001C213 13.4001 213 13.2001 213 13.2001L217.7 12.1001H218.1V25.5001C218.6 19.4001 220 12.1001 225.3 12.1001C228.2 12.0001 229.7 13.0001 231.4 15.0001Z" fill="#2A2C23"/>
<path d="M250.8 21.7L246.5 32.3L248.1 36.1H244.1L237.9 21.5C235.8 16.6 234.8 14.4 232.3 12.4V12H240V12.4C238.7 13.7 239.1 15.1 240.3 17.9L246.3 31.8L250.4 21.6C252.3 17 252.8 14.2 250.6 12.4V12H256.5V12.4C254.4 14.6 252.6 17.1 250.8 21.7Z" fill="#2A2C23"/>
<path d="M264.7 35.7001C264.7 35.8 264.7 36 264.7 36H258.5V35.7001C259.3 35.2001 259.6 34.5 259.6 32.7001V15.9C259.6 14.1 259.5 13.6 258.5 13.5C258.5 13.4 258.5 13.2 258.5 13.2L263.2 12.1H263.6V32.9001C263.6 34.5001 263.9 35.3 264.7 35.7001ZM259.1 5.60005C259.1 4.30005 260.2 3.30005 261.5 3.30005C262.8 3.30005 263.9 4.30005 263.9 5.60005C263.9 6.90005 262.9 8.00005 261.5 8.00005C260.2 8.00005 259.1 6.90005 259.1 5.60005Z" fill="#2A2C23"/>
<path d="M284 35.5C289 35 291.7 30.6 292.5 29.2L292.8 29.4C291.3 32.2 288.3 36.1 282.3 36.4C275.4 36.8 268.5 33 268.3 24.7C268 16 275.9 12 281.4 12C284.3 12 288.3 13.3 290.9 14.7L290.1 18.9H289.8C288.6 15.9 283.8 11.6 279.1 12.7C272.9 14.1 270.7 22 272.8 28C274.7 33.2 278.9 36 284 35.5Z" fill="#2A2C23"/>
<path d="M320.1 28.1C319.8 31.6 316.6 36.4 309.5 36.4C302.6 36.4 295.9 33 295.7 24.7C295.4 16 303.3 12.3 308.8 12C313.1 11.8 318.9 13.9 319.6 19.9C319.1 19.9 316 19.9 316 19.9H314.9C317.9 20.7 320.5 23.6 320.1 28.1ZM313 19.9H300C299.4 22.6 299.5 25.5 300.4 27.9C302.3 33.2 306 35.5 311.1 35.3C315.4 35.1 319.2 32.1 319.7 28.2C320.2 23 316.8 19.9 313 19.9ZM300.1 19.5H316.1C315.4 15.1 311.5 11.6 306.6 12.6C303.2 13.3 301 16.1 300.1 19.5Z" fill="#2A2C23"/>
</svg>
