<svg width="140" height="20" viewBox="0 0 140 20" fill="none" xmlns="http://www.w3.org/2000/svg">
<path d="M46.3103 5.2769L44.2182 8.24321L43.9684 8.11831C43.906 6.15118 42.938 3.62202 41.0958 3.90303C37.7236 4.43385 37.2864 13.2703 37.2864 16.2054V17.5481C37.2864 18.7658 37.5362 19.2654 38.0358 19.5776C38.0358 19.6401 38.0358 19.8274 38.0358 19.8274H33.7893C33.7893 19.8274 33.7893 19.6401 33.7893 19.5776C34.3514 19.2654 34.5699 18.7658 34.5699 17.5481V5.90139C34.5699 4.68364 34.4763 4.34018 33.7893 4.2465C33.7893 4.18405 33.7893 3.99671 33.7893 3.99671L37.0054 3.24732H37.2864V12.4585C37.6299 8.30566 38.5979 3.24732 42.2199 3.24732C44.0621 3.24732 45.155 3.90303 46.3103 5.2769Z" fill="white"/>
<path d="M32.1345 16.5177H28.6686V11.7091C27.7631 14.7379 25.8896 16.7362 22.5799 16.7362C19.7697 16.7362 17.0219 15.3936 16.5536 12.9269C15.9915 9.42974 18.0836 7.33771 20.7376 6.24486C19.8321 4.2465 20.925 0 25.515 0C28.3564 0 31.3851 1.49877 31.3851 5.74527V14.2695C31.3851 15.4873 31.6349 15.9868 32.1345 16.2991C32.1345 16.3615 32.1345 16.5177 32.1345 16.5177ZM28.6686 11.0846V5.80772C28.4813 5.74527 27.6694 5.49548 26.6078 5.49548C22.8609 5.49548 17.7713 7.33771 19.2701 13.3952C19.7072 15.2375 21.7056 16.3928 23.4229 16.2679C26.4205 16.1117 27.9817 13.5826 28.6686 11.0846ZM21.0811 6.11996C22.9233 5.43303 24.9841 5.18323 26.6078 5.18323C27.3884 5.18323 28.0753 5.30813 28.6686 5.49548V5.24568C28.6686 2.62284 27.6382 0.343467 25.2027 0.343467C22.1115 0.343467 20.0507 3.341 21.0811 6.11996Z" fill="white"/>
<path d="M58.0508 6.61955L55.1158 13.8948L56.2086 16.5177H53.4921L49.2456 6.49465C47.8093 3.12243 47.0911 1.65489 45.4362 0.281019V0H50.6819V0.281019C49.7764 1.21775 50.0886 2.12325 50.9005 4.05916L54.9909 13.6138L57.801 6.61955C59.0812 3.4659 59.4559 1.56121 57.9259 0.312243V0H61.9851V0.281019C60.5176 1.77978 59.2998 3.4659 58.0508 6.61955Z" fill="white"/>
<path d="M78.1591 12.0526C77.9405 14.4881 75.786 17.7354 70.9151 17.7354C66.169 17.7354 61.6102 15.3936 61.4541 9.74198C61.2667 3.80937 66.6686 1.21775 70.4467 0.999181C73.3818 0.874284 77.3785 2.27938 77.8781 6.43221C77.5658 6.43221 75.4426 6.43221 75.4426 6.43221H74.6932C76.6603 6.9318 78.4401 8.93015 78.1591 12.0526ZM73.2881 6.43221H64.3892C63.952 8.24322 64.0457 10.2728 64.639 11.9277C65.9192 15.5497 68.4796 17.1109 71.9767 16.986C74.943 16.8611 77.5034 14.8315 77.8468 12.1463C78.2528 8.55546 75.8797 6.43221 73.2881 6.43221ZM64.4516 6.15119H75.4114C74.9742 3.15366 72.2889 0.749387 68.9167 1.4051C66.5749 1.87346 65.0761 3.80937 64.4516 6.15119Z" fill="white"/>
<path d="M106.199 19.3278C106.199 19.3903 106.199 19.5776 106.199 19.5776H101.983C101.983 19.5776 101.983 19.3903 101.983 19.3278C102.514 19.0156 102.67 18.4223 102.577 17.2983C102.452 16.1742 101.952 10.3665 101.796 8.55546C101.515 5.96384 100.516 3.05998 97.8305 3.65325C94.6768 4.34018 94.2709 9.67953 94.2084 13.2703V17.2983C94.2084 18.516 94.4582 19.0156 94.9578 19.3278C94.9578 19.3903 94.9578 19.5776 94.9578 19.5776H90.7426C90.7426 19.5776 90.7426 19.3903 90.7426 19.3278C91.2734 19.0156 91.4919 18.516 91.4919 17.2983V8.55546C91.4919 5.93262 90.2742 3.12243 87.6201 3.65325C83.7795 4.37141 83.5922 11.553 83.5922 14.4881V17.2983C83.5922 18.516 83.8732 19.0156 84.3728 19.3278C84.3728 19.3903 84.3728 19.5776 84.3728 19.5776H80.1263C80.1263 19.5776 80.1263 19.3903 80.1263 19.3278C80.6571 19.0156 80.9069 18.516 80.9069 17.2983V5.68283C80.9069 4.46508 80.8132 4.12161 80.1263 4.02794C80.1263 3.96549 80.1263 3.77814 80.1263 3.77814L83.3424 3.02876H83.5922V10.6475C83.9669 6.99424 84.9973 3.02876 89.1189 3.02876C91.773 3.02876 94.0211 5.30813 94.1772 9.08627L94.2084 9.46096C94.6144 6.11997 95.8946 3.02876 99.3605 3.02876C102.077 3.02876 104.013 5.05834 104.419 9.08627C104.793 12.4273 105.106 16.0181 105.231 17.2983C105.387 18.516 105.699 19.0156 106.199 19.3278Z" fill="white"/>
<path d="M123.153 11.2407C122.935 13.6762 120.78 16.9236 115.909 16.9236C111.163 16.9236 106.605 14.5817 106.448 8.93015C106.261 2.99753 111.663 0.405918 115.441 0.187348C118.376 0.0624505 122.373 1.46754 122.872 5.62037C122.56 5.62037 120.437 5.62037 120.437 5.62037H119.688C121.623 6.11996 123.434 8.11832 123.153 11.2407ZM118.282 5.62037H109.384C108.946 7.43138 109.04 9.46096 109.633 11.1159C110.914 14.7379 113.474 16.2991 116.971 16.1742C119.937 16.0493 122.498 14.0197 122.841 11.3344C123.247 7.74363 120.874 5.62037 118.282 5.62037ZM109.446 5.33936H120.406C119.969 2.34182 117.283 -0.0624467 113.911 0.593263C111.569 1.0304 110.071 2.99753 109.446 5.33936Z" fill="white"/>
<path d="M139.577 14.3007C139.359 16.7362 137.204 19.9835 132.333 19.9835C127.587 19.9835 123.028 17.6417 122.872 11.9901C122.685 6.05751 128.087 3.46589 131.865 3.24732C134.8 3.12243 138.797 4.52752 139.296 8.68035C138.984 8.68035 136.861 8.68035 136.861 8.68035H136.111C138.079 9.17994 139.858 11.1783 139.577 14.3007ZM134.706 8.68035H125.807C125.37 10.4914 125.464 12.5209 126.057 14.1758C127.337 17.7978 129.898 19.3591 133.395 19.2342C136.361 19.1093 138.922 17.0797 139.265 14.3944C139.702 10.8036 137.329 8.68035 134.706 8.68035ZM125.87 8.39933H136.83C136.392 5.4018 133.707 2.99753 130.335 3.65324C128.024 4.09038 126.494 6.05751 125.87 8.39933Z" fill="white"/>
<path d="M15.8979 16.0805C14.9924 17.3607 13.3063 19.1093 10.7771 19.3591C7.31123 19.7025 4.37615 17.7666 3.09595 14.1758C1.65963 10.0542 3.18962 4.62119 7.43613 3.65324C10.6522 2.90386 13.9308 5.83894 14.7426 7.89974H14.9612L15.492 5.05833C13.7122 4.12161 10.9645 3.24732 8.99734 3.24732C5.2192 3.24732 -0.182601 6.02629 0.00474433 11.9901C0.129642 17.6417 4.84451 20.2333 9.5906 19.9835C12.9316 19.7962 14.8987 17.954 16.0853 16.2366L15.8979 16.0805Z" fill="white"/>
</svg>
