<svg width="139" height="36" viewBox="0 0 139 36" fill="none" xmlns="http://www.w3.org/2000/svg">
<path d="M27.4869 25.9704C27.1518 29.9915 23.6333 35.353 15.5911 35.353C7.71636 35.353 0.176757 31.4994 0.00921066 22.1168C-0.325883 12.2315 8.5541 8.04287 14.9209 7.70777C19.7797 7.54023 26.314 9.88588 27.1518 16.5878C26.6491 16.5878 23.1307 16.5878 23.1307 16.5878H21.6227C24.9737 17.593 27.822 20.944 27.4869 25.9704ZM19.4446 16.7553H4.70052C4.03033 19.7711 4.19788 23.1221 5.03561 25.8028C7.21372 31.8345 11.4024 34.3477 17.099 34.1802C21.9578 34.0126 26.3141 30.6617 26.8167 26.1379C27.6544 20.2738 23.6333 16.7553 19.4446 16.7553ZM4.70052 16.2527H22.7956C22.1254 11.3938 17.7692 7.37268 12.2401 8.37796C8.219 9.21569 5.87335 12.3991 4.70052 16.2527Z" fill="#2A2C23"/>
<path d="M49.4355 18.7654L44.5767 30.8287L46.4197 35.1849H41.8959L34.859 18.4303C32.5133 12.9012 31.3405 10.388 28.4922 8.20992V7.70728H37.2046V8.20992C35.6967 9.71784 36.1993 11.2258 37.5397 14.4091L44.2416 30.1585L48.9329 18.5978C51.111 13.4039 51.6136 10.2205 49.1004 8.20992V7.70728H55.8023V8.20992C53.4567 10.7231 51.6136 13.5714 49.4355 18.7654Z" fill="#2A2C23"/>
<path d="M84.1177 25.9704C83.7826 29.9915 80.2642 35.353 72.2219 35.353C64.3472 35.353 56.8076 31.4994 56.6401 22.1168C56.305 12.2315 65.185 8.04287 71.5517 7.70777C76.4106 7.54023 82.9449 9.88588 83.7826 16.5878C83.28 16.5878 79.7615 16.5878 79.7615 16.5878H78.5887C81.6045 17.593 84.6204 20.944 84.1177 25.9704ZM76.0755 16.7553H61.3314C60.6612 19.7711 60.8287 23.1221 61.6665 25.8028C63.8446 31.8345 68.0332 34.3477 73.7298 34.1802C78.5887 34.0126 82.9449 30.6617 83.4476 26.1379C84.2853 20.2738 80.4317 16.7553 76.0755 16.7553ZM61.4989 16.2527H79.594C78.9238 11.3938 74.4 7.37268 68.871 8.37796C65.0174 9.21569 62.5042 12.3991 61.4989 16.2527Z" fill="#2A2C23"/>
<path d="M116.287 34.6823C116.287 34.8499 116.287 35.0174 116.287 35.0174H109.25V34.6823C110.088 34.1797 110.423 33.1744 110.255 31.3314C110.088 29.4884 109.25 19.9382 108.915 16.9223C108.58 12.7337 106.402 7.87482 101.543 8.8801C95.1761 10.0529 94.0032 21.9487 94.0032 26.8076V31.4989C94.0032 33.5095 94.3383 34.3472 95.3436 34.8498C95.3436 35.0174 95.3436 35.1849 95.3436 35.1849H88.3066V34.8498C89.1444 34.3472 89.4795 33.5095 89.4795 31.4989V12.0635C89.4795 10.0529 89.3119 9.55029 88.3066 9.38274C88.3066 9.2152 88.3066 9.04765 88.3066 9.04765L93.6681 7.87482H94.0032V21.7812C94.6734 15.4144 96.684 7.70728 104.056 7.70728C108.747 7.70728 112.601 10.8907 113.439 17.7601C113.941 23.2891 114.611 29.1533 114.779 31.3314C114.779 33.3419 115.449 34.1797 116.287 34.6823Z" fill="#2A2C23"/>
<path d="M138.905 25.132C137.9 30.4935 135.387 35.3524 129.523 35.3524C124.496 35.3524 121.313 32.0014 121.313 25.2996V8.20979H117.962V7.70715C122.821 7.70715 123.156 2.68075 123.156 0H127.68C127.68 4.35622 123.323 7.5396 119.972 7.70715H132.538V8.20979H125.837V26.3048C125.837 31.1637 127.177 35.0173 132.036 34.3471C135.722 33.8444 137.732 29.3207 138.738 24.9645L138.905 25.132Z" fill="#2A2C23"/>
</svg>
