<svg width="139" height="25" viewBox="0 0 139 25" fill="none" xmlns="http://www.w3.org/2000/svg">
<g clip-path="url(#clip0_66_2)">
<path d="M15.6999 23.5C20.6999 23 23.3999 18.6 24.1999 17.2L24.4999 17.3C22.8999 20.1 19.9999 24 13.9999 24.4C7.09986 24.7 0.199864 21 -0.000135886 12.7C-0.200136 4.1 7.59986 0 13.0999 0C15.9999 0 19.9999 1.3 22.5999 2.7L21.7999 6.9H21.4999C20.2999 3.9 15.4999 -0.4 10.7999 0.7C4.69986 2 2.49986 9.9 4.59986 15.9C6.39986 21.2 10.6999 24 15.6999 23.5Z" fill="#2A2C23"/>
<path d="M45.6998 3L42.5998 7.3L42.1998 7.1C42.0998 4.2 40.6998 0.5 37.9998 0.9C33.0998 1.6 32.3998 14.6 32.3998 18.8V20.8C32.3998 22.6 32.7998 23.3 33.4998 23.8C33.4998 23.9 33.4998 24.2 33.4998 24.2H27.2998C27.2998 24.2 27.2998 23.9 27.2998 23.8C28.0998 23.3 28.4998 22.6 28.4998 20.8V3.9C28.4998 2.1 28.2998 1.6 27.2998 1.5C27.2998 1.4 27.2998 1.2 27.2998 1.2L32.1998 0H32.5998V13.4C33.0998 7.4 34.4998 0 39.7998 0C42.4998 0 43.9998 1 45.6998 3Z" fill="#2A2C23"/>
<path d="M71.1 16.1C70.8 19.7 67.6 24.4 60.5 24.4C53.6 24.4 46.9 21 46.7 12.7C46.5 4.09997 54.4 0.299975 59.9 -2.45823e-05C64.1 -0.200025 70 1.89998 70.7 7.89998C70.2 7.89998 67.1 7.89998 67.1 7.89998H66C68.9 8.69998 71.5 11.6 71.1 16.1ZM64 7.89998H51C50.4 10.5 50.5 13.5 51.4 15.9C53.3 21.2 57 23.5 62.1 23.3C66.4 23.1 70.2 20.2 70.7 16.2C71.2 11 67.8 7.89998 64 7.89998ZM51.1 7.49998H67.1C66.4 3.09998 62.5 -0.400025 57.6 0.599975C54.2 1.29998 52 4.09998 51.1 7.49998Z" fill="#2A2C23"/>
<path d="M96.8997 24.1H91.7997V17.1C90.4997 21.5 87.6996 24.4 82.8996 24.4C78.7996 24.4 74.7996 22.5 74.0996 18.8C73.2996 13.7 76.2996 10.7 80.1996 9.1C78.9996 6.2 80.5997 0 87.2997 0C91.4997 0 95.8997 2.2 95.8997 8.4V20.8C95.8997 22.6 96.1996 23.3 96.9996 23.8C96.8996 23.8 96.8997 24.1 96.8997 24.1ZM91.8997 16.2V8.5C91.5997 8.4 90.4996 8.1 88.8996 8.1C83.3996 8 75.9996 10.7 78.1996 19.5C78.7996 22.2 81.7997 23.9 84.2997 23.7C88.5997 23.5 90.8997 19.8 91.8997 16.2ZM80.7997 8.9C83.4997 7.9 86.4996 7.5 88.8996 7.5C89.9996 7.5 90.9997 7.7 91.8997 8V7.7C91.8997 3.9 90.3997 0.5 86.7997 0.5C82.2997 0.5 79.2997 4.9 80.7997 8.9Z" fill="#2A2C23"/>
<path d="M138.4 23.7C138.4 23.8 138.4 24.1 138.4 24.1H132.3C132.3 24.1 132.3 23.8 132.3 23.7C133.1 23.2 133.3 22.4 133.2 20.7C133 19.1 132.3 10.6 132 8C131.6 4.2 130.1 0 126.2 0.8C121.6 1.8 121 9.6 120.9 14.8V20.7C120.9 22.5 121.3 23.2 122 23.7C122 23.8 122 24.1 122 24.1H115.8C115.8 24.1 115.8 23.8 115.8 23.7C116.6 23.2 116.9 22.5 116.9 20.7V8.1C116.9 4.3 115.1 0.2 111.2 0.9C105.6 1.9 105.3 12.4 105.3 16.7V20.8C105.3 22.6 105.7 23.3 106.5 23.8C106.5 23.9 106.5 24.2 106.5 24.2H100.3C100.3 24.2 100.3 23.9 100.3 23.8C101.1 23.3 101.5 22.6 101.5 20.8V3.9C101.5 2.1 101.3 1.6 100.3 1.5C100.3 1.4 100.3 1.2 100.3 1.2L105 0.1H105.4V11.2C106 5.8 107.5 0 113.5 0C117.4 0 120.7 3.3 120.9 8.8L121 9.4C121.6 4.5 123.5 0 128.5 0C132.5 0 135.3 3 135.9 8.8C136.5 13.7 136.9 18.9 137.1 20.8C137.2 22.6 137.6 23.3 138.4 23.7Z" fill="#2A2C23"/>
</g>
<defs>
<clipPath id="clip0_66_2">
<rect width="138.4" height="24.4" fill="white"/>
</clipPath>
</defs>
</svg>
