<svg width="168" height="37" viewBox="0 0 168 37" fill="none" xmlns="http://www.w3.org/2000/svg">
<g clip-path="url(#clip0_66_19)">
<path d="M24.8 36.1H19.7V22.7C18.7 28.5 16.2 36.4 9.20004 36.4C5.10004 36.4 0.100036 32.9 -0.0999639 26.5C-0.299964 14.1 11.2 12 16.8 12C17.9 12 18.9 12.2 19.8 12.5V3.9C19.8 2.1 19.7 1.6 18.7 1.5C18.7 1.4 18.7 1.1 18.7 1.1L23.4 0H23.8V32.8C23.8 34.6 24.2 35.3 24.9 35.8C24.8 35.8 24.8 36.1 24.8 36.1ZM19.8 19.7V12.7C19.5 12.7 18.4 12.2 16.8 12.2C11.9 12.3 3.20004 14.4 3.90004 27.2C4.10004 31.5 7.20004 36.3 11.5 35.5C17.1 34.4 19.8 23.9 19.8 19.7Z" fill="#2A2C23"/>
<path d="M34.4998 35.7001C34.4998 35.8001 34.4998 36.1001 34.4998 36.1001H28.2998C28.2998 36.1001 28.2998 35.8001 28.2998 35.7001C29.0998 35.2001 29.3998 34.5001 29.3998 32.7001V15.9001C29.3998 14.1001 29.2998 13.6001 28.2998 13.5001C28.2998 13.4001 28.2998 13.2001 28.2998 13.2001L32.9998 12.0001H33.3998V32.8001C33.3998 34.5001 33.6998 35.3001 34.4998 35.7001ZM28.8998 5.60007C28.8998 4.30007 29.9998 3.20007 31.2998 3.20007C32.5998 3.20007 33.6998 4.30007 33.6998 5.60007C33.6998 6.90007 32.5998 8.00007 31.2998 8.00007C29.9998 8.00007 28.8998 6.90007 28.8998 5.60007Z" fill="#2A2C23"/>
<path d="M44.9004 12.4V32.8C44.9004 34.6 45.3004 35.3 46.0004 35.8C46.0004 35.9 46.0004 36.2 46.0004 36.2H39.8004C39.8004 36.2 39.8004 35.9 39.8004 35.8C40.6004 35.3 40.9004 34.6 40.9004 32.8V16.4C40.9004 13.7 39.9004 12.4 37.9004 12.4V12H45.3004C42.3004 11.8 38.1004 9.4 38.1004 6C38.2004 2.7 41.0004 0 45.9004 0C48.1004 0 50.6004 0.6 52.4004 1.9L51.6004 7.2H51.2004C50.0004 4.2 46.7004 -0.8 43.4004 0.8C41.7004 1.6 41.1004 4.2 41.5004 6.9C41.9004 9.1 43.5004 12.1 47.5004 12.1H54.4004V12.5H44.9004V12.4Z" fill="#2A2C23"/>
<path d="M61.5 12.4V32.8C61.5 34.6 61.9 35.3 62.6 35.8C62.6 35.9 62.6 36.2 62.6 36.2H56.4C56.4 36.2 56.4 35.9 56.4 35.8C57.2 35.3 57.5 34.6 57.5 32.8V16.4C57.5 13.7 56.5 12.4 54.5 12.4V12H61.9C58.9 11.8 54.7 9.40002 54.7 6.00002C54.7 2.60002 57.5 -0.0999756 62.4 -0.0999756C64.6 -0.0999756 67.1 0.500024 68.9 1.80002L68.1 7.10002H67.7C66.5 4.10002 63.2 -0.899976 59.9 0.700024C58.2 1.50002 57.6 4.10002 58 6.80002C58.4 9.00002 60 12 64 12H70.9V12.4H61.5Z" fill="#2A2C23"/>
<path d="M96.4 36.1H91.3V23.9C90.7 29.6 88.9 36.4 82.4 36.4C77.8 36.4 74.1 33.5 74.1 27.6V15.9C74.1 14.1 74 13.6 73 13.5C73 13.4 73 13.2 73 13.2L77.7 12.1H78.1V28.4C78.1 32.8 80.4 36.4 84.7 35.6C90.3 34.5 91.3 24 91.3 19.8V16C91.3 14.2 91.2 13.7 90.2 13.6C90.2 13.5 90.2 13.3 90.2 13.3L94.9 12.2H95.3V33C95.3 34.8 95.7 35.5 96.5 36C96.4 35.8 96.4 36.1 96.4 36.1Z" fill="#2A2C23"/>
<path d="M117.6 15.2L116.6 19.8H116.3C114.7 15.5 111.5 12.4 108.7 12.4C105.3 12.4 103.4 14.3 103.1 16.4C102.4 23.1 119.3 21.3 118.7 29.5C118.4 33.5 114.7 36.4 109.1 36.4C105.1 36.4 102 35 99.2998 33L100.4 28H100.7C102.4 31.5 106.2 35.7 110.6 35.7C114.2 35.7 116.9 33.9 117.2 31.7C118.2 25.1 100.7 28 101.9 18.2C102.3 14.9 104.1 12 109.6 12C112.2 12 115.6 13.7 117.6 15.2Z" fill="#2A2C23"/>
<path d="M146.2 28.1C145.9 31.7 142.7 36.4 135.6 36.4C128.7 36.4 122 33 121.8 24.7C121.5 16 129.4 12.3 134.9 12C139.2 11.8 145 13.9 145.7 19.9C145.3 19.9 142.2 19.9 142.2 19.9H141.1C144 20.7 146.6 23.6 146.2 28.1ZM139.1 19.9H126.1C125.5 22.6 125.6 25.5 126.5 27.9C128.4 33.2 132.1 35.4 137.2 35.2C141.5 35 145.3 32.1 145.8 28.2C146.3 23 142.9 19.9 139.1 19.9ZM126.2 19.5H142.2C141.5 15.1 137.6 11.6 132.7 12.6C129.3 13.3 127.1 16.1 126.2 19.5Z" fill="#2A2C23"/>
<path d="M168 15L165 19.3L164.6 19.1C164.5 16.2 163.1 12.5 160.4 12.9C155.5 13.7 154.9 26.6 154.9 30.8V32.8C154.9 34.6 155.2 35.3 156 35.8C156 35.9 156 36.2 156 36.2H149.8C149.8 36.2 149.8 35.9 149.8 35.8C150.6 35.3 151 34.6 151 32.8V15.9C151 14.1 150.8 13.6 149.8 13.5C149.8 13.4 149.8 13.2 149.8 13.2L154.5 12.1H154.9V25.5C155.4 19.5 156.8 12.1 162.1 12.1C164.7 12 166.3 13 168 15Z" fill="#2A2C23"/>
</g>
<defs>
<clipPath id="clip0_66_19">
<rect width="168" height="36.4" fill="white"/>
</clipPath>
</defs>
</svg>
