<svg width="30" height="31" viewBox="0 0 30 31" fill="none" xmlns="http://www.w3.org/2000/svg">
<path d="M29.3858 0.0808741C29.2656 0.0290733 29.1365 0.00159725 29.0058 0H1.0058C0.740582 0 0.486228 0.106508 0.298692 0.296093C0.111155 0.485679 0.00579834 0.742812 0.00579834 1.01093C0.00579834 1.27904 0.111155 1.53617 0.298692 1.72576C0.486228 1.91534 0.740582 2.02185 1.0058 2.02185H26.5958L0.295798 28.5991C0.20207 28.6931 0.127676 28.8049 0.0769069 28.9281C0.0261382 29.0513 0 29.1834 0 29.3169C0 29.4503 0.0261382 29.5824 0.0769069 29.7056C0.127676 29.8288 0.20207 29.9406 0.295798 30.0346C0.388761 30.1294 0.499363 30.2046 0.621222 30.2559C0.743081 30.3072 0.873786 30.3336 1.0058 30.3336C1.13781 30.3336 1.26852 30.3072 1.39037 30.2559C1.51223 30.2046 1.62284 30.1294 1.7158 30.0346L28.0058 3.44726V29.3169C28.0058 29.585 28.1112 29.8421 28.2987 30.0317C28.4862 30.2213 28.7406 30.3278 29.0058 30.3278C29.271 30.3278 29.5254 30.2213 29.7129 30.0317C29.9004 29.8421 30.0058 29.585 30.0058 29.3169V1.01093C30.0042 0.878821 29.977 0.74831 29.9258 0.626774C29.8243 0.379755 29.6301 0.183458 29.3858 0.0808741Z" fill="#2A2C23"/>
</svg>
