<svg width="187" height="49" viewBox="0 0 187 49" fill="none" xmlns="http://www.w3.org/2000/svg">
<g clip-path="url(#clip0_66_9)">
<path d="M24.8 22.1202C25.1 34.5134 13.6 36.6123 8 36.6123C6.9 36.6123 5.9 36.4124 5 36.2125V44.8077C5 46.6067 5.1 47.1065 6.1 47.2064C6.1 47.3064 6.1 47.6062 6.1 47.6062L1.4 48.7056H1.1V16.1236C1.1 14.3245 1 13.8248 0 13.7249C0 13.6249 0 13.425 0 13.425L4.7 12.2257H5.1V25.9182C6 20.1214 8.5 12.2257 15.5 12.2257C19.6 12.2257 24.6 15.7238 24.8 22.1202ZM20.9 21.4206C20.6 17.0231 17.6 12.3257 13.3 13.1252C7.7 14.2246 5.1 24.7188 5.1 28.9165V35.9126C5.4 36.0126 6.5 36.4124 8.1 36.4124C12.9 36.2125 21.6 34.1136 20.9 21.4206Z" fill="#2A2C23"/>
<path d="M52.6996 28.3168C52.3996 31.9148 49.1996 36.6122 42.0996 36.6122C35.1996 36.6122 28.4996 33.2141 28.2996 24.9187C28.0996 16.3234 35.9996 12.5255 41.4996 12.2257C45.7996 12.0258 51.5996 14.1246 52.2996 20.1213C51.7996 20.1213 48.6996 20.1213 48.6996 20.1213H47.5996C50.4996 20.9209 53.0996 23.8193 52.6996 28.3168ZM45.5996 20.1213H32.5996C31.9996 22.7199 32.0996 25.7182 32.9996 28.1169C34.8996 33.414 38.5996 35.7127 43.6996 35.5128C47.9996 35.3129 51.7996 32.4145 52.2996 28.4167C52.8996 23.2196 49.3996 20.1213 45.5996 20.1213ZM32.6996 19.7215H48.6996C47.9996 15.324 44.0996 11.8259 39.1996 12.8253C35.7996 13.525 33.5996 16.3234 32.6996 19.7215Z" fill="#2A2C23"/>
<path d="M74.4996 15.2241L71.3996 19.5217L70.9996 19.3218C70.8996 16.4234 69.4996 12.7255 66.7996 13.1252C61.8996 13.9248 61.1996 26.8177 61.1996 31.0154V33.0143C61.1996 34.8133 61.5996 35.5129 62.2996 36.0126C62.2996 36.1125 62.2996 36.4124 62.2996 36.4124H56.0996C56.0996 36.4124 56.0996 36.1125 56.0996 36.0126C56.8996 35.5129 57.2996 34.8133 57.2996 33.0143V16.1236C57.2996 14.3246 57.0996 13.8248 56.0996 13.7249C56.0996 13.625 56.0996 13.4251 56.0996 13.4251L60.7996 12.3257H61.1996V25.7183C61.6996 19.6216 63.0996 12.3257 68.3996 12.3257C71.2996 12.2257 72.7996 13.2252 74.4996 15.2241Z" fill="#2A2C23"/>
<path d="M82.9004 12.6254V33.0142C82.9004 34.8132 83.3004 35.5128 84.0004 36.0125C84.0004 36.1125 84.0004 36.4123 84.0004 36.4123H77.8004C77.8004 36.4123 77.8004 36.1125 77.8004 36.0125C78.6004 35.5128 78.9004 34.8132 78.9004 33.0142V16.6232C78.9004 13.9247 77.9004 12.6254 75.9004 12.6254V12.2257H83.3004C80.3004 12.0258 76.1004 9.62708 76.1004 6.22896C76.1004 2.83083 78.9004 0.132324 83.8004 0.132324C86.0004 0.132324 88.5004 0.731993 90.3004 2.03128L89.5004 7.32835H89.1004C87.9004 4.23006 84.6004 -0.667235 81.3004 0.931883C79.6004 1.73144 79.0004 4.33001 79.4004 7.02852C79.8004 9.22731 81.4004 12.2257 85.4004 12.2257H92.3004V12.6254H82.9004Z" fill="#2A2C23"/>
<path d="M117.9 36.3124H112.8V24.1192C112.2 29.816 110.4 36.6123 103.9 36.6123C99.3 36.6123 95.6 33.7139 95.6 27.8171V16.1236C95.6 14.3246 95.5 13.8249 94.5 13.7249C94.5 13.625 94.5 13.4251 94.5 13.4251L99.2 12.3257H99.6V28.6167C99.6 33.0143 101.9 36.6123 106.2 35.8127C111.8 34.7133 112.8 24.2191 112.8 20.0214V16.1236C112.8 14.3246 112.7 13.8249 111.7 13.7249C111.7 13.625 111.7 13.4251 111.7 13.4251L116.4 12.3257H116.8V33.1142C116.8 34.9132 117.2 35.6128 118 36.1126C117.9 36.0126 117.9 36.3124 117.9 36.3124Z" fill="#2A2C23"/>
<path d="M159.3 35.9126C159.3 36.0126 159.3 36.3124 159.3 36.3124H153.1C153.1 36.3124 153.1 36.0126 153.1 35.9126C153.9 35.4129 154.1 34.6134 154 32.9143C153.8 31.3152 153.1 22.8199 152.8 20.2213C152.4 16.4234 151 12.2257 147 13.0253C142.4 14.0247 141.8 21.8204 141.7 27.0175V32.9143C141.7 34.7133 142.1 35.4129 142.8 35.9126C142.8 36.0126 142.8 36.3124 142.8 36.3124H136.6C136.6 36.3124 136.6 36.0126 136.6 35.9126C137.4 35.4129 137.7 34.7133 137.7 32.9143V20.3212C137.7 16.5233 135.9 12.4256 132.1 13.1252C126.5 14.1247 126.2 24.6189 126.2 28.9165V33.0142C126.2 34.8132 126.6 35.5129 127.4 36.0126C127.4 36.1125 127.4 36.4124 127.4 36.4124H121.2C121.2 36.4124 121.2 36.1125 121.2 36.0126C122 35.5129 122.4 34.8132 122.4 33.0142V16.1236C122.4 14.3245 122.2 13.8248 121.2 13.7249C121.2 13.6249 121.2 13.425 121.2 13.425L126 12.2257H126.4V23.3196C127 18.0225 128.5 12.2257 134.5 12.2257C138.4 12.2257 141.6 15.5239 141.9 21.0209V21.6205C142.5 16.7232 144.4 12.2257 149.4 12.2257C153.4 12.2257 156.2 15.2241 156.8 21.0209C157.3 25.9182 157.8 31.1153 158 33.0142C158.1 34.8132 158.6 35.5129 159.3 35.9126Z" fill="#2A2C23"/>
<path d="M186.1 28.3168C185.8 31.9148 182.6 36.6122 175.5 36.6122C168.6 36.6122 161.9 33.2141 161.7 24.9187C161.4 16.2235 169.3 12.5255 174.8 12.2257C179.1 12.0258 184.9 14.1246 185.6 20.1213C185.2 20.1213 182.1 20.1213 182.1 20.1213H181C183.9 20.9209 186.5 23.8193 186.1 28.3168ZM179 20.1213H166C165.3 22.7199 165.5 25.7182 166.3 28.1169C168.2 33.414 171.9 35.7127 177 35.5128C181.3 35.3129 185.1 32.4145 185.6 28.4167C186.3 23.2196 182.8 20.1213 179 20.1213ZM166.2 19.7215H182.2C181.5 15.324 177.6 11.8259 172.7 12.8253C169.3 13.525 167.1 16.3234 166.2 19.7215Z" fill="#2A2C23"/>
</g>
<defs>
<clipPath id="clip0_66_9">
<rect width="186.2" height="48.3733" fill="white" transform="translate(0 0.2323)"/>
</clipPath>
</defs>
</svg>
