<svg width="50" height="67" viewBox="0 0 50 67" fill="none" xmlns="http://www.w3.org/2000/svg">
<path d="M50 12.5666V5.51934C50 2.56664 47.5325 0.164062 44.5 0.164062H5.49999C2.4675 0.164062 0 2.56664 0 5.51934V12.5666V12.5763V31.8088C0 34.7615 2.4675 37.1641 5.49999 37.1641H44.5C47.5325 37.1641 50 34.7615 50 31.8088V12.5738V12.5666ZM5.5005 3.08529H44.5005C45.878 3.08529 47.0005 4.17824 47.0005 5.51946V11.6269L25.201 20.8645C25.0735 20.9181 24.926 20.9181 24.801 20.8645L3.00145 11.6269V5.51946C3.00145 4.17824 4.12394 3.08529 5.5014 3.08529H5.5005ZM44.5005 34.2431H5.5005C4.12304 34.2431 3.00055 33.1501 3.00055 31.8089V14.8136L23.6052 23.5427C24.0502 23.7302 24.5252 23.8251 25.0002 23.8251C25.4752 23.8251 25.9527 23.7302 26.3977 23.5427L46.9998 14.8136V31.8089C46.9998 33.1501 45.8773 34.2431 44.4998 34.2431H44.5005Z" fill="white"/>
<path d="M11 67C10.3 67 9.70001 66.9 9.10001 66.6C8.50001 66.4 8 66 7.5 65.5C7 65 6.70001 64.5 6.40001 63.8C6.10001 63.2 6 62.4 6 61.6C6 60.8 6.10001 60.1 6.40001 59.4C6.70001 58.7 7 58.1 7.5 57.6C8 57.1 8.50001 56.7 9.20001 56.4C9.90001 56.1 10.6 56 11.3 56C11.7 56 12.2 56.1 12.7 56.2C13.2 56.3 13.6 56.5 14 56.7H14.5C14.6 56.7 14.7 56.7 14.7 56.8V56.9L14.9 58.9C14.7 59 14.6 59 14.5 59C14.4 59 14.3 58.9 14.2 58.8L14 58.2C14 58.1 13.9 57.9 13.8 57.7C13.7 57.5 13.4 57.3 13.1 57.1C12.8 57 12.5 56.9 12.2 56.8C11.9 56.7 11.5 56.7 11.2 56.7C10.3 56.7 9.60001 56.9 8.90001 57.3C8.30001 57.7 7.80001 58.2 7.40001 58.9C7.00001 59.6 6.90001 60.4 6.90001 61.3C6.90001 62.3 7.1 63.1 7.5 63.8C7.9 64.5 8.40001 65.1 9.10001 65.5C9.80001 65.9 10.5 66.1 11.4 66.1C11.6 66.1 11.8 66.1 12.1 66.1C12.4 66.1 12.7 66 13.1 66C13.4 65.9 13.8 65.8 14 65.6V63.3C14 62.9 13.9 62.6 13.7 62.5C13.5 62.4 13.1 62.3 12.5 62.3C12.5 62.3 12.5 62.2 12.5 62.1C12.5 62 12.5 62 12.5 61.9C12.5 61.8 12.6 61.7 12.6 61.7H12.7H15.8C15.9 61.7 16 61.8 16 61.8C16 61.8 16 61.9 16 62C16 62.1 16 62.1 15.9 62.2C15.6 62.3 15.3 62.4 15.2 62.5C15.1 62.7 15 62.9 15 63.3V65.8C14.7 66.1 14.3 66.3 13.9 66.5C13.4 66.7 12.9 66.8 12.4 66.9C11.9 67 11.4 67 11 67Z" fill="white"/>
<path d="M25.9004 66.8002C25.8004 66.8002 25.8004 66.8002 25.8004 66.7002C25.8004 66.7002 25.8004 66.6002 25.8004 66.5002C25.8004 66.4002 25.8004 66.4002 25.9004 66.3002C26.2004 66.3002 26.5004 66.2002 26.6004 66.0002C26.7004 65.9002 26.8004 65.7002 26.8004 65.4002C26.8004 65.3002 26.8004 65.0002 26.8004 64.7002C26.8004 64.4002 26.8004 64.0002 26.8004 63.6002C26.8004 63.3002 26.8004 63.0002 26.8004 62.7002C26.8004 62.4002 26.8004 62.2002 26.8004 62.1002C26.8004 61.5002 26.6004 61.1002 26.3004 60.9002C26.0004 60.6002 25.6004 60.5002 25.2004 60.5002C24.8004 60.5002 24.4004 60.6002 24.0004 60.9002C23.6004 61.2002 23.4004 61.5002 23.2004 62.0002C23.2004 62.1002 23.2004 62.1002 23.2004 62.2002V63.9002C23.2004 64.3002 23.2004 64.7002 23.2004 65.0002C23.2004 65.3002 23.2004 65.6002 23.2004 65.8002C23.2004 65.9002 23.2004 66.0002 23.3004 66.1002C23.4004 66.2002 23.4004 66.2002 23.5004 66.2002C23.6004 66.2002 23.7004 66.2002 23.8004 66.2002C24.0004 66.2002 24.1004 66.2002 24.2004 66.2002C24.2004 66.2002 24.2004 66.3002 24.2004 66.4002C24.2004 66.5002 24.2004 66.6002 24.2004 66.6002C24.2004 66.7002 24.1004 66.7002 24.0004 66.7002H21.6004C21.5004 66.7002 21.4004 66.7002 21.4004 66.6002C21.4004 66.6002 21.4004 66.5002 21.4004 66.4002C21.4004 66.3002 21.4004 66.3002 21.5004 66.2002C21.9004 66.2002 22.1004 66.1002 22.2004 65.9002C22.3004 65.7002 22.4004 65.6002 22.4004 65.3002C22.4004 65.2002 22.4004 64.9002 22.4004 64.6002C22.4004 64.3002 22.4004 63.9002 22.4004 63.5002C22.4004 63.2002 22.4004 62.9002 22.4004 62.6002C22.4004 62.3002 22.4004 62.1002 22.4004 62.0002C22.4004 61.4002 22.2004 61.0002 21.9004 60.8002C21.6004 60.5002 21.2004 60.4002 20.8004 60.4002C20.4004 60.4002 20.0004 60.5002 19.7004 60.8002C19.4004 61.1002 19.1004 61.4002 18.9004 61.9002C18.9004 62.2002 18.9004 62.5002 18.9004 62.8002C18.9004 63.1002 18.9004 63.4002 18.9004 63.7002C18.9004 64.2002 18.9004 64.5002 18.9004 64.9002C18.9004 65.3002 18.9004 65.5002 18.9004 65.8002C18.9004 66.0002 19.0004 66.1002 19.2004 66.2002C19.3004 66.2002 19.4004 66.2002 19.6004 66.2002C19.8004 66.2002 19.9004 66.2002 20.0004 66.2002C20.0004 66.2002 20.0004 66.3002 20.0004 66.4002C20.0004 66.5002 20.0004 66.5002 20.0004 66.6002C20.0004 66.7002 19.9004 66.8002 19.9004 66.8002H19.8004H17.3004C17.2004 66.8002 17.1004 66.8002 17.1004 66.7002C17.1004 66.7002 17.1004 66.6002 17.1004 66.5002C17.1004 66.4002 17.1004 66.4002 17.2004 66.3002C17.6004 66.3002 17.8004 66.2002 17.9004 66.0002C18.0004 65.9002 18.1004 65.7002 18.1004 65.4002C18.1004 65.3002 18.1004 65.1002 18.1004 64.8002C18.1004 64.5002 18.1004 64.2002 18.1004 63.8002C18.1004 63.4002 18.1004 63.1002 18.1004 62.7002C18.1004 62.4002 18.1004 62.1002 18.1004 61.8002C18.1004 61.5002 18.1004 61.3002 18.1004 61.2002C18.1004 61.0002 18.1004 60.9002 18.0004 60.8002C17.9004 60.7002 17.8004 60.7002 17.6004 60.6002L17.0004 60.5002C16.9004 60.5002 16.9004 60.5002 16.9004 60.4002C16.9004 60.2002 16.9004 60.1002 17.0004 60.0002C17.2004 60.0002 17.4004 59.9002 17.6004 59.9002C17.8004 59.9002 18.0004 59.9002 18.2004 59.9002C18.4004 59.9002 18.6004 60.0002 18.7004 60.1002C18.8004 60.2002 18.8004 60.4002 18.8004 60.6002C18.8004 60.7002 18.8004 60.8002 18.8004 60.9002C19.1004 60.5002 19.4004 60.3002 19.8004 60.1002C20.2004 59.9002 20.6004 59.8002 21.0004 59.8002C21.5004 59.8002 21.9004 59.9002 22.2004 60.1002C22.5004 60.3002 22.8004 60.7002 22.9004 61.1002C23.2004 60.7002 23.5004 60.4002 24.0004 60.1002C24.4004 59.9002 24.9004 59.7002 25.4004 59.7002C26.0004 59.7002 26.5004 59.9002 26.9004 60.3002C27.3004 60.7002 27.5004 61.3002 27.5004 62.1002V63.9002C27.5004 64.3002 27.5004 64.7002 27.5004 65.0002C27.5004 65.3002 27.5004 65.6002 27.5004 65.8002C27.5004 65.9002 27.5004 66.0002 27.6004 66.1002C27.7004 66.2002 27.7004 66.2002 27.8004 66.2002C27.9004 66.2002 28.0004 66.2002 28.1004 66.2002C28.3004 66.2002 28.4004 66.2002 28.5004 66.2002C28.5004 66.2002 28.5004 66.3002 28.5004 66.4002C28.5004 66.5002 28.5004 66.6002 28.5004 66.6002C28.5004 66.7002 28.4004 66.7002 28.3004 66.7002H25.9004V66.8002Z" fill="white"/>
<path d="M34.9998 67.0001C34.7998 67.0001 34.5998 66.9001 34.4998 66.7001C34.3998 66.5001 34.2998 66.3001 34.2998 66.0001C33.8998 66.3001 33.4998 66.6001 33.0998 66.8001C32.6998 67.0001 32.1998 67.0001 31.7998 67.0001C31.2998 67.0001 30.7998 66.8001 30.3998 66.5001C29.9998 66.2001 29.7998 65.7001 29.7998 65.0001C29.7998 64.5001 29.9998 64.0001 30.2998 63.7001C30.5998 63.4001 31.0998 63.1001 31.7998 63.0001C32.4998 62.8001 33.3998 62.7001 34.3998 62.7001V62.3001C34.3998 62.1001 34.3998 61.9001 34.3998 61.6001C34.3998 61.4001 34.2998 61.1001 34.1998 60.9001C34.0998 60.7001 33.8998 60.5001 33.6998 60.4001C33.4998 60.3001 33.0998 60.2001 32.6998 60.2001C32.1998 60.2001 31.7998 60.3001 31.5998 60.5001C31.3998 60.7001 31.1998 61.0001 31.1998 61.5001H31.0998C30.9998 61.5001 30.9998 61.5001 30.8998 61.5001C30.6998 61.5001 30.5998 61.5001 30.3998 61.4001C30.1998 61.3001 30.1998 61.2001 30.1998 61.1001C30.1998 60.9001 30.2998 60.8001 30.4998 60.6001C30.6998 60.4001 30.8998 60.3001 31.1998 60.1001C31.4998 59.9001 31.7998 59.8001 32.1998 59.7001C32.5998 59.6001 32.8998 59.6001 33.2998 59.6001C33.6998 59.6001 33.9998 59.7001 34.2998 59.8001C34.5998 59.9001 34.8998 60.1001 35.0998 60.4001C35.2998 60.7001 35.3998 61.1001 35.3998 61.6001C35.3998 61.9001 35.3998 62.2001 35.3998 62.7001C35.3998 63.1001 35.3998 63.5001 35.3998 64.0001C35.3998 64.3001 35.3998 64.6001 35.3998 64.9001C35.3998 65.2001 35.3998 65.4001 35.3998 65.6001C35.3998 65.9001 35.3998 66.0001 35.4998 66.1001C35.5998 66.1001 35.5998 66.2001 35.6998 66.2001H36.4998C36.5998 66.2001 36.5998 66.2001 36.5998 66.3001C36.5998 66.4001 36.5998 66.4001 36.5998 66.5001C36.5998 66.6001 36.4998 66.7001 36.4998 66.7001C36.3998 66.7001 36.2998 66.8001 36.1998 66.8001C36.0998 66.8001 35.8998 66.9001 35.6998 66.9001C35.2998 66.9001 35.0998 67.0001 34.9998 67.0001ZM34.2998 65.5001V63.4001C33.8998 63.4001 33.4998 63.3001 33.1998 63.3001C32.4998 63.3001 31.9998 63.4001 31.6998 63.5001C31.2998 63.6001 31.0998 63.8001 30.8998 64.0001C30.7998 64.2001 30.6998 64.5001 30.6998 64.8001C30.6998 65.3001 30.8998 65.6001 31.1998 65.8001C31.4998 66.0001 31.8998 66.1001 32.2998 66.1001C32.6998 66.1001 32.9998 66.0001 33.3998 65.9001C33.7998 65.8001 34.0998 65.7001 34.2998 65.5001Z" fill="white"/>
<path d="M37.3002 66.8002C37.2002 66.8002 37.2002 66.8002 37.2002 66.7002C37.2002 66.7002 37.2002 66.6002 37.2002 66.5002C37.2002 66.4002 37.2002 66.4002 37.3002 66.3002C37.7002 66.3002 37.9002 66.2002 38.1002 66.0002C38.3002 65.8002 38.4002 65.7002 38.4002 65.4002C38.4002 65.3002 38.4002 65.1002 38.4002 64.8002C38.4002 64.5002 38.4002 64.2002 38.4002 63.8002C38.4002 63.4002 38.4002 63.1002 38.4002 62.7002C38.4002 62.4002 38.4002 62.1002 38.4002 61.8002C38.4002 61.5002 38.4002 61.3002 38.4002 61.2002C38.4002 61.0002 38.4002 60.9002 38.3002 60.8002C38.2002 60.7002 38.1002 60.7002 37.9002 60.6002L37.3002 60.5002C37.2002 60.5002 37.2002 60.5002 37.2002 60.4002C37.2002 60.2002 37.3002 60.1002 37.4002 60.0002C37.6002 60.0002 37.8002 59.9002 38.0002 59.9002C38.2002 59.9002 38.5002 59.9002 38.6002 59.9002C38.8002 59.9002 39.0002 60.0002 39.1002 60.1002C39.2002 60.2002 39.2002 60.4002 39.2002 60.6002C39.2002 61.0002 39.2002 61.5002 39.2002 62.1002C39.2002 62.7002 39.2002 63.2002 39.2002 63.8002C39.2002 64.3002 39.2002 64.6002 39.2002 65.0002C39.2002 65.3002 39.2002 65.6002 39.2002 65.9002C39.2002 66.1002 39.3002 66.3002 39.5002 66.3002C39.5002 66.3002 39.6002 66.3002 39.7002 66.3002C39.8002 66.3002 39.9002 66.3002 40.1002 66.3002C40.2002 66.3002 40.3002 66.3002 40.4002 66.3002C40.4002 66.3002 40.4002 66.4002 40.4002 66.5002C40.4002 66.6002 40.4002 66.6002 40.4002 66.7002C40.4002 66.8002 40.3002 66.9002 40.3002 66.9002H40.2002H37.3002V66.8002ZM38.5002 58.2002C38.3002 58.2002 38.1002 58.1002 37.9002 58.0002C37.7002 57.8002 37.7002 57.7002 37.7002 57.5002C37.7002 57.3002 37.8002 57.1002 37.9002 56.9002C38.1002 56.7002 38.3002 56.7002 38.5002 56.7002C38.7002 56.7002 38.9002 56.8002 39.1002 56.9002C39.3002 57.1002 39.3002 57.2002 39.3002 57.5002C39.3002 57.7002 39.2002 57.9002 39.1002 58.0002C38.9002 58.1002 38.7002 58.2002 38.5002 58.2002Z" fill="white"/>
<path d="M41.1004 66.8C41.0004 66.8 40.9004 66.8 40.9004 66.7C40.9004 66.7 40.9004 66.6 40.9004 66.5C40.9004 66.4 40.9004 66.4 41.0004 66.3C41.3004 66.3 41.6004 66.2 41.8004 66C42.0004 65.8 42.1004 65.6 42.1004 65.3C42.1004 65.1 42.1004 64.7 42.1004 64.2C42.1004 63.7 42.1004 63.1 42.1004 62.5C42.1004 61.9 42.1004 61.2 42.1004 60.6C42.1004 60 42.1004 59.4 42.1004 58.8C42.1004 58.4 42.1004 58.1 42.1004 57.8C42.1004 57.5 42.1004 57.3 42.1004 57.2C42.1004 57 42.1004 56.9 42.0004 56.8C41.9004 56.7 41.8004 56.7 41.7004 56.7L41.1004 56.6C41.0004 56.6 41.0004 56.6 41.0004 56.5C41.0004 56.4 41.0004 56.4 41.0004 56.3C41.0004 56.2 41.1004 56.2 41.1004 56.1C41.3004 56 41.5004 56 41.8004 56C42.1004 56 42.4004 56 42.6004 56C42.8004 56 43.0004 56 43.1004 56.1C43.2004 56.2 43.3004 56.3 43.2004 56.6C43.2004 56.9 43.1004 57.3 43.1004 57.8C43.1004 58.3 43.1004 58.9 43.0004 59.5C43.0004 60.1 43.0004 60.8 43.0004 61.4C43.0004 62.1 43.0004 62.7 43.0004 63.3C43.0004 63.8 43.0004 64.3 43.0004 64.7C43.0004 65.1 43.0004 65.4 43.0004 65.7C43.0004 65.9 43.1004 66 43.1004 66.1C43.2004 66.2 43.3004 66.2 43.4004 66.2C43.5004 66.2 43.6004 66.2 43.8004 66.2C44.0004 66.2 44.1004 66.2 44.2004 66.2C44.2004 66.2 44.2004 66.3 44.2004 66.4C44.2004 66.5 44.2004 66.5 44.2004 66.6C44.2004 66.7 44.1004 66.8 44.1004 66.8H44.0004H41.1004Z" fill="white"/>
</svg>
