<svg width="65" height="75" viewBox="0 0 65 75" fill="none" xmlns="http://www.w3.org/2000/svg">
<path d="M44.2666 0.164062H19.7334C16.8871 0.167896 14.1599 1.29873 12.1472 3.31124C10.1347 5.32375 9.00388 8.05117 9 10.8974V35.4307C9.00383 38.277 10.1347 41.0042 12.1472 43.0169C14.1597 45.0294 16.8871 46.1602 19.7334 46.1641H44.2666C47.1129 46.1602 49.8401 45.0294 51.8528 43.0169C53.8653 41.0044 54.9961 38.277 55 35.4307V10.8974C54.9962 8.05117 53.8653 5.32395 51.8528 3.31124C49.8403 1.29873 47.1129 0.167939 44.2666 0.164062ZM51.9333 35.4307C51.9314 37.4623 51.1226 39.4116 49.6851 40.8491C48.2476 42.2866 46.2983 43.0954 44.2666 43.0973H19.7334C17.7017 43.0954 15.7524 42.2866 14.3149 40.8491C12.8774 39.4116 12.0686 37.4624 12.0667 35.4307V10.8974C12.0686 8.86572 12.8774 6.91646 14.3149 5.47895C15.7524 4.04145 17.7017 3.23264 19.7334 3.23072H44.2666C46.2983 3.23264 48.2476 4.04145 49.6851 5.47895C51.1226 6.91646 51.9314 8.86567 51.9333 10.8974V35.4307ZM32 12.4307C29.1537 12.4307 26.4226 13.5615 24.4099 15.574C22.3972 17.5865 21.2666 20.3178 21.2666 23.1641C21.2666 26.0105 22.3974 28.7415 24.4099 30.7542C26.4224 32.7669 29.1536 33.8975 32 33.8975C34.8464 33.8975 37.5774 32.7667 39.5901 30.7542C41.6028 28.7418 42.7334 26.0105 42.7334 23.1641C42.7296 20.3179 41.5987 17.5906 39.5862 15.5779C37.5737 13.5654 34.8463 12.4346 32 12.4307ZM32 30.8307C29.9664 30.8307 28.0172 30.0238 26.5796 28.5843C25.1402 27.1468 24.3333 25.1976 24.3333 23.164C24.3333 21.1303 25.1402 19.1811 26.5796 17.7436C28.0171 16.3042 29.9663 15.4973 32 15.4973C34.0337 15.4973 35.9828 16.3042 37.4204 17.7436C38.8598 19.1811 39.6667 21.1303 39.6667 23.164C39.6648 25.1956 38.856 27.1449 37.4185 28.5824C35.981 30.0199 34.0317 30.8287 32 30.8307ZM47.7165 10.1305C47.7165 11.2153 47.0629 12.1947 46.0605 12.6087C45.0581 13.0246 43.9024 12.7946 43.1357 12.028C42.369 11.2613 42.1391 10.1055 42.555 9.10316C42.969 8.10073 43.9483 7.44716 45.0332 7.44716C46.5148 7.44716 47.7165 8.64885 47.7165 10.1305Z" fill="white"/>
<path d="M0.2 71.4C0.1 71.4 0 71.4 0 71.3C0 71.3 0 71.2 0 71.1C0 71 0 71 0.1 70.9C0.5 70.9 0.8 70.7 1 70.6C1.2 70.4 1.2 70.2 1.2 69.8V62.4C1.2 62.1 1.2 61.9 1.1 61.8C1.1 61.7 0.9 61.7 0.8 61.6C0.6 61.6 0.4 61.6 0.1 61.6C0.1 61.6 0.1 61.5 0.1 61.4C0.1 61.3 0.1 61.3 0.1 61.2C0.1 61.1 0.2 61 0.2 61H0.3H3.1C3.2 61 3.3 61.1 3.3 61.1C3.3 61.1 3.3 61.2 3.3 61.3C3.3 61.4 3.3 61.4 3.2 61.5C2.8 61.6 2.5 61.6 2.4 61.8C2.2 61.9 2.1 62.1 2.1 62.5V69.8C2.1 70.2 2.1 70.4 2.2 70.6C2.2 70.7 2.4 70.8 2.6 70.9C2.7 70.9 2.8 70.9 3 70.9C3.2 70.9 3.3 70.9 3.4 70.9C3.4 70.9 3.4 71 3.4 71.1C3.4 71.2 3.4 71.2 3.4 71.3C3.4 71.4 3.3 71.5 3.3 71.5H3.2H0.2V71.4Z" fill="white"/>
<path d="M4.4998 71.3998C4.3998 71.3998 4.2998 71.3998 4.2998 71.2998C4.2998 71.2998 4.2998 71.1998 4.2998 71.0998C4.2998 70.9998 4.2998 70.9998 4.3998 70.8998C4.7998 70.8998 4.9998 70.7998 5.0998 70.5998C5.1998 70.4998 5.2998 70.2998 5.2998 69.9998C5.2998 69.8998 5.2998 69.6998 5.2998 69.3998C5.2998 69.0998 5.2998 68.7998 5.2998 68.3998C5.2998 67.9998 5.2998 67.6998 5.2998 67.2998C5.2998 66.9998 5.2998 66.6998 5.2998 66.3998C5.2998 66.0998 5.2998 65.8998 5.2998 65.7998C5.2998 65.5998 5.2998 65.4998 5.1998 65.3998C5.1998 65.2998 5.0998 65.2998 4.8998 65.1998H4.3998C4.2998 65.1998 4.2998 65.1998 4.2998 65.0998C4.2998 64.8998 4.2998 64.7998 4.3998 64.6998C4.5998 64.5998 4.7998 64.5998 4.9998 64.4998C5.1998 64.4998 5.3998 64.4998 5.5998 64.4998C5.8998 64.4998 5.9998 64.5998 6.0998 64.6998C6.1998 64.7998 6.1998 64.9998 6.1998 65.1998C6.1998 65.2998 6.1998 65.3998 6.1998 65.4998C6.4998 65.0998 6.8998 64.7998 7.2998 64.5998C7.6998 64.3998 8.1998 64.2998 8.5998 64.2998C9.1998 64.2998 9.7998 64.4998 10.0998 64.8998C10.3998 65.2998 10.6998 65.8998 10.6998 66.6998V68.4998C10.6998 68.8998 10.6998 69.2998 10.6998 69.5998C10.6998 69.8998 10.6998 70.1998 10.6998 70.3998C10.6998 70.4998 10.6998 70.5998 10.7998 70.6998C10.8998 70.7998 10.8998 70.7998 10.9998 70.7998C11.0998 70.7998 11.1998 70.7998 11.2998 70.7998C11.4998 70.7998 11.5998 70.7998 11.6998 70.7998C11.6998 70.7998 11.6998 70.8998 11.6998 70.9998C11.6998 71.0998 11.6998 71.1998 11.6998 71.1998C11.6998 71.2998 11.5998 71.2998 11.4998 71.2998H9.0998C8.9998 71.2998 8.9998 71.2998 8.9998 71.1998C8.9998 71.1998 8.9998 71.0998 8.9998 70.9998C8.9998 70.8998 8.9998 70.8998 9.0998 70.7998C9.3998 70.7998 9.6998 70.6998 9.7998 70.4998C9.8998 70.2998 9.9998 70.1998 9.9998 69.8998C9.9998 69.7998 9.9998 69.4998 9.9998 69.1998C9.9998 68.8998 9.9998 68.4998 9.9998 68.0998C9.9998 67.7998 9.9998 67.4998 9.9998 67.1998C9.9998 66.8998 9.9998 66.6998 9.9998 66.5998C9.9998 65.9998 9.7998 65.5998 9.4998 65.3998C9.1998 65.1998 8.7998 65.0998 8.3998 65.0998C7.8998 65.0998 7.4998 65.1998 7.0998 65.5998C6.6998 65.7998 6.3998 66.1998 6.1998 66.6998C6.1998 66.9998 6.1998 67.1998 6.1998 67.4998C6.1998 67.7998 6.1998 67.9998 6.1998 68.2998C6.1998 68.7998 6.1998 69.0998 6.1998 69.4998C6.1998 69.8998 6.1998 70.0998 6.1998 70.3998C6.1998 70.5998 6.2998 70.6998 6.4998 70.7998C6.5998 70.7998 6.6998 70.7998 6.8998 70.7998C7.0998 70.7998 7.1998 70.7998 7.2998 70.7998C7.2998 70.7998 7.2998 70.8998 7.2998 70.9998C7.2998 71.0998 7.2998 71.0998 7.2998 71.1998C7.2998 71.2998 7.1998 71.3998 7.1998 71.3998H7.0998H4.4998Z" fill="white"/>
<path d="M15.3998 71.5998C14.8998 71.5998 14.4998 71.4998 14.0998 71.3998C13.6998 71.2998 13.3998 71.0998 13.1998 70.8998C13.0998 70.7998 12.9998 70.6998 12.8998 70.4998C12.7998 70.2998 12.7998 70.1998 12.7998 70.0998C12.7998 69.9998 12.8998 69.8998 12.9998 69.7998C13.0998 69.6998 13.2998 69.5998 13.3998 69.4998C13.5998 69.8998 13.7998 70.2998 14.1998 70.5998C14.5998 70.8998 15.0998 70.9998 15.5998 70.9998C15.9998 70.9998 16.3998 70.8998 16.6998 70.6998C16.9998 70.4998 17.1998 70.1998 17.1998 69.7998C17.1998 69.3998 17.0998 69.1998 16.8998 68.9998C16.6998 68.7998 16.3998 68.5998 16.0998 68.4998C15.7998 68.3998 15.4998 68.2998 15.0998 68.1998C14.7998 68.0998 14.4998 67.9998 14.1998 67.7998C13.8998 67.6998 13.5998 67.4998 13.3998 67.1998C13.1998 66.8998 13.0998 66.5998 13.0998 66.1998C13.0998 65.7998 13.1998 65.4998 13.3998 65.1998C13.5998 64.8998 13.8998 64.6998 14.2998 64.4998C14.6998 64.2998 15.0998 64.2998 15.5998 64.2998C16.0998 64.2998 16.5998 64.3998 16.9998 64.5998C17.3998 64.7998 17.6998 65.0998 17.7998 65.4998C17.7998 65.5998 17.7998 65.6998 17.6998 65.7998C17.5998 65.8998 17.4998 65.9998 17.3998 65.9998C17.2998 66.0998 17.1998 66.0998 17.0998 66.0998C16.9998 65.7998 16.7998 65.4998 16.4998 65.2998C16.1998 65.0998 15.7998 64.8998 15.2998 64.8998C14.8998 64.8998 14.5998 64.9998 14.2998 65.1998C13.9998 65.3998 13.9998 65.5998 13.9998 65.9998C13.9998 66.3998 14.0998 66.5998 14.3998 66.7998C14.6998 66.9998 15.0998 67.0998 15.5998 67.2998C15.9998 67.4998 16.3998 67.5998 16.6998 67.7998C17.0998 67.9998 17.3998 68.1998 17.6998 68.4998C17.9998 68.7998 18.0998 69.0998 18.0998 69.5998C18.0998 69.9998 17.9998 70.2998 17.7998 70.6998C17.5998 70.9998 17.2998 71.2998 16.8998 71.4998C16.3998 71.4998 15.9998 71.5998 15.3998 71.5998Z" fill="white"/>
<path d="M21.8998 71.6002C21.3998 71.6002 20.8998 71.4002 20.5998 71.1002C20.2998 70.8002 20.0998 70.2002 20.0998 69.5002V65.2002H18.9998C18.8998 65.2002 18.7998 65.2002 18.7998 65.1002C18.7998 65.1002 18.7998 65.0002 18.8998 64.8002C18.8998 64.7002 18.9998 64.6002 18.9998 64.5002H20.0998V63.2002C20.0998 63.1002 20.1998 63.0002 20.2998 62.9002C20.3998 62.9002 20.4998 62.8002 20.6998 62.8002C20.8998 62.8002 20.9998 62.7002 21.1998 62.7002C21.1998 62.8002 21.1998 63.0002 21.0998 63.3002C21.0998 63.6002 21.0998 64.0002 20.9998 64.4002H22.1998C22.6998 64.4002 23.0998 64.4002 23.3998 64.3002C23.3998 64.4002 23.3998 64.6002 23.2998 64.7002C23.1998 64.8002 23.2998 64.9002 23.1998 64.9002C23.1998 65.0002 22.9998 65.1002 22.8998 65.1002H20.8998C20.8998 65.5002 20.8998 66.0002 20.8998 66.5002C20.8998 67.0002 20.8998 67.4002 20.8998 67.9002C20.8998 68.1002 20.8998 68.4002 20.8998 68.6002C20.8998 68.8002 20.8998 69.1002 20.8998 69.3002C20.8998 69.8002 20.9998 70.1002 21.2998 70.4002C21.4998 70.6002 21.7998 70.7002 22.1998 70.7002C22.6998 70.7002 23.0998 70.5002 23.5998 70.2002C23.5998 70.2002 23.6998 70.3002 23.6998 70.4002C23.6998 70.5002 23.7998 70.6002 23.7998 70.7002C23.7998 70.8002 23.6998 70.9002 23.5998 71.0002C23.2998 71.2002 23.0998 71.3002 22.6998 71.4002C22.2998 71.5002 22.1998 71.6002 21.8998 71.6002Z" fill="white"/>
<path d="M29.8996 71.6002C29.6996 71.6002 29.4996 71.5002 29.3996 71.3002C29.2996 71.1002 29.1996 70.9002 29.1996 70.6002C28.7996 70.9002 28.3996 71.2002 27.9996 71.4002C27.5996 71.6002 26.9996 71.6002 26.5996 71.6002C26.0996 71.6002 25.5996 71.4002 25.1996 71.1002C24.7996 70.8002 24.5996 70.3002 24.5996 69.6002C24.5996 69.1002 24.7996 68.6002 25.0996 68.3002C25.3996 68.0002 25.8996 67.7002 26.5996 67.6002C27.2996 67.4002 28.1996 67.3002 29.1996 67.3002V66.9002C29.1996 66.7002 29.1996 66.5002 29.1996 66.2002C29.1996 66.0002 29.0996 65.7002 28.9996 65.5002C28.8996 65.3002 28.6996 65.1002 28.4996 65.0002C28.2996 64.9002 27.8996 64.8002 27.4996 64.8002C26.9996 64.8002 26.5996 64.9002 26.3996 65.1002C26.1996 65.3002 25.9996 65.6002 25.9996 66.1002H25.8996C25.7996 66.1002 25.7996 66.1002 25.6996 66.1002C25.4996 66.1002 25.3996 66.1002 25.1996 66.0002C24.9996 65.9002 24.9996 65.8002 24.9996 65.7002C24.9996 65.5002 25.0996 65.4002 25.2996 65.2002C25.4996 65.0002 25.6996 64.9002 25.9996 64.7002C26.2996 64.5002 26.5996 64.4002 26.9996 64.3002C27.3996 64.2002 27.6996 64.2002 28.0996 64.2002C28.4996 64.2002 28.7996 64.3002 29.0996 64.4002C29.3996 64.5002 29.6996 64.7002 29.8996 65.0002C30.0996 65.3002 29.9996 65.8002 29.9996 66.3002C29.9996 66.6002 29.9996 66.9002 29.9996 67.4002C29.9996 67.8002 29.9996 68.2002 29.9996 68.7002C29.9996 69.0002 29.9996 69.3002 29.9996 69.6002C29.9996 69.9002 29.9996 70.1002 29.9996 70.3002C29.9996 70.6002 29.9996 70.7002 30.0996 70.8002C30.1996 70.8002 30.1996 70.9002 30.2996 70.9002H31.0996C31.1996 70.9002 31.1996 70.9002 31.1996 71.0002C31.1996 71.1002 31.1996 71.1002 31.1996 71.2002C31.1996 71.3002 31.0996 71.4002 31.0996 71.4002C30.9996 71.4002 30.8996 71.5002 30.7996 71.5002C30.6996 71.5002 30.4996 71.6002 30.2996 71.6002C30.0996 71.5002 29.9996 71.6002 29.8996 71.6002ZM29.1996 70.1002V68.0002C28.7996 68.0002 28.3996 67.9002 28.0996 67.9002C27.3996 67.9002 26.8996 68.0002 26.5996 68.1002C26.1996 68.2002 25.9996 68.4002 25.7996 68.6002C25.6996 68.8002 25.5996 69.1002 25.5996 69.4002C25.5996 69.9002 25.7996 70.2002 26.0996 70.4002C26.3996 70.6002 26.7996 70.7002 27.1996 70.7002C27.5996 70.7002 27.8996 70.6002 28.2996 70.5002C28.6996 70.4002 28.8996 70.3002 29.1996 70.1002Z" fill="white"/>
<path d="M32.9004 71.3999C32.8004 71.4999 32.8004 71.5999 32.8004 71.7999C32.8004 71.8999 32.8004 71.9999 32.8004 72.0999C32.8004 72.3999 32.9004 72.6999 33.1004 72.8999C33.3004 73.0999 33.6004 73.2999 33.9004 73.3999C34.2004 73.4999 34.6004 73.5999 35.0004 73.5999C35.4004 73.5999 35.8004 73.5999 36.1004 73.4999C36.5004 73.3999 36.8004 73.1999 37.0004 72.9999C37.2004 72.7999 37.4004 72.4999 37.4004 72.1999C37.4004 71.8999 37.3004 71.5999 37.0004 71.3999C36.7004 71.1999 36.3004 70.9999 35.7004 71.0999H34.3004C34.0004 71.0999 33.7004 71.0999 33.4004 70.9999C33.1004 70.8999 33.0004 70.5999 32.8004 70.4999C32.6004 70.2999 32.6004 70.0999 32.6004 69.7999C32.6004 69.5999 32.7004 69.3999 32.8004 69.1999C32.9004 68.9999 33.0004 68.7999 33.3004 68.5999C33.0004 68.3999 32.7004 68.0999 32.5004 67.7999C32.3004 67.4999 32.2004 67.0999 32.2004 66.6999C32.2004 66.2999 32.3004 65.7999 32.6004 65.4999C32.8004 65.0999 33.1004 64.8999 33.6004 64.6999C34.0004 64.4999 34.5004 64.3999 35.0004 64.3999C35.4004 64.3999 35.8004 64.4999 36.2004 64.6999H37.2004C37.4004 64.6999 37.7004 64.6999 37.9004 64.5999C38.1004 64.5999 38.3004 64.4999 38.5004 64.4999C38.5004 64.5999 38.5004 64.7999 38.5004 64.8999C38.5004 64.9999 38.5004 65.0999 38.4004 65.1999C38.4004 65.2999 38.3004 65.2999 38.2004 65.3999C38.1004 65.3999 38.1004 65.3999 38.0004 65.3999C37.8004 65.3999 37.7004 65.3999 37.5004 65.3999C37.3004 65.3999 37.2004 65.3999 37.0004 65.2999C37.2004 65.4999 37.3004 65.6999 37.4004 65.9999C37.5004 66.2999 37.6004 66.4999 37.6004 66.7999C37.6004 67.2999 37.5004 67.6999 37.2004 68.0999C37.0004 68.4999 36.6004 68.6999 36.2004 68.9999C35.8004 69.1999 35.3004 69.2999 34.8004 69.2999C34.4004 69.2999 34.1004 69.1999 33.8004 69.0999C33.7004 69.1999 33.6004 69.2999 33.6004 69.4999C33.6004 69.5999 33.5004 69.7999 33.5004 69.8999C33.5004 70.0999 33.6004 70.1999 33.7004 70.2999C33.8004 70.3999 34.1004 70.4999 34.4004 70.4999L35.9004 70.3999C36.5004 70.3999 36.9004 70.4999 37.3004 70.5999C37.6004 70.7999 37.9004 70.9999 38.1004 71.1999C38.3004 71.4999 38.3004 71.6999 38.3004 71.9999C38.3004 72.4999 38.1004 72.8999 37.8004 73.2999C37.5004 73.6999 37.1004 73.9999 36.5004 74.1999C35.9004 74.3999 35.4004 74.4999 34.7004 74.4999C33.9004 74.4999 33.2004 74.2999 32.7004 73.9999C32.2004 73.6999 31.9004 73.1999 31.9004 72.5999C31.9004 72.3999 31.9004 72.2999 32.0004 72.0999C32.1004 71.8999 32.2004 71.7999 32.3004 71.5999C32.4004 71.4999 32.6004 71.3999 32.7004 71.4999L32.9004 71.3999ZM35.0004 68.2999C35.4004 68.2999 35.8004 68.1999 36.1004 67.8999C36.4004 67.5999 36.6004 67.1999 36.6004 66.6999C36.6004 66.3999 36.5004 66.0999 36.4004 65.7999C36.2004 65.5999 36.0004 65.2999 35.7004 65.1999C35.4004 64.9999 35.1004 64.8999 34.7004 64.8999C34.2004 64.8999 33.8004 65.0999 33.5004 65.3999C33.2004 65.6999 33.1004 66.0999 33.1004 66.4999C33.1004 67.0999 33.3004 67.4999 33.6004 67.7999C33.9004 68.0999 34.4004 68.2999 35.0004 68.2999Z" fill="white"/>
<path d="M39.6998 71.3998C39.5998 71.3998 39.4998 71.3998 39.4998 71.2998C39.4998 71.2998 39.4998 71.1998 39.4998 71.0998C39.4998 70.9998 39.4998 70.9998 39.5998 70.8998C39.9998 70.8998 40.1998 70.7998 40.2998 70.5998C40.3998 70.3998 40.4998 70.2998 40.4998 69.9998C40.4998 69.8998 40.4998 69.6998 40.4998 69.3998C40.4998 69.0998 40.4998 68.7998 40.4998 68.3998C40.4998 67.9998 40.4998 67.6998 40.4998 67.2998C40.4998 66.9998 40.4998 66.6998 40.4998 66.3998C40.4998 66.0998 40.4998 65.8998 40.4998 65.7998C40.4998 65.5998 40.4998 65.4998 40.3998 65.3998C40.2998 65.2998 40.1998 65.2998 39.9998 65.1998L39.3998 65.0998C39.2998 65.0998 39.2998 65.0998 39.2998 64.9998C39.2998 64.7998 39.2998 64.6998 39.3998 64.5998C39.7998 64.5998 39.9998 64.5998 40.1998 64.4998C40.3998 64.4998 40.5998 64.4998 40.7998 64.4998C41.1998 64.4998 41.3998 64.6998 41.3998 65.1998C41.3998 65.3998 41.3998 65.5998 41.3998 65.8998C41.5998 65.3998 41.7998 65.0998 42.0998 64.7998C42.3998 64.4998 42.7998 64.2998 43.2998 64.2998C43.4998 64.2998 43.6998 64.2998 43.8998 64.3998C44.0998 64.4998 44.1998 64.4998 44.2998 64.5998V64.6998C44.2998 64.7998 44.2998 64.9998 44.1998 65.1998C44.0998 65.3998 44.0998 65.4998 43.9998 65.4998C43.7998 65.3998 43.5998 65.2998 43.3998 65.2998C43.1998 65.1998 42.9998 65.1998 42.8998 65.1998C42.3998 65.1998 42.0998 65.3998 41.7998 65.8998C41.5998 66.3998 41.3998 66.9998 41.3998 67.7998C41.3998 67.8998 41.3998 67.9998 41.3998 67.9998V68.1998C41.3998 68.6998 41.3998 68.9998 41.3998 69.2998C41.3998 69.5998 41.3998 69.8998 41.3998 70.1998C41.3998 70.4998 41.4998 70.5998 41.6998 70.5998C41.6998 70.5998 41.7998 70.5998 41.9998 70.5998C42.0998 70.5998 42.2998 70.5998 42.3998 70.5998C42.4998 70.5998 42.5998 70.5998 42.6998 70.5998C42.6998 70.5998 42.6998 70.6998 42.6998 70.7998C42.6998 70.8998 42.6998 70.8998 42.6998 70.9998C42.6998 71.0998 42.5998 71.1998 42.5998 71.1998H42.4998H39.6998V71.3998Z" fill="white"/>
<path d="M50.2996 71.6002C50.0996 71.6002 49.8996 71.5002 49.7996 71.3002C49.6996 71.1002 49.5996 70.9002 49.5996 70.6002C49.1996 70.9002 48.7996 71.2002 48.3996 71.4002C47.9996 71.6002 47.4996 71.6002 47.0996 71.6002C46.5996 71.6002 46.0996 71.4002 45.6996 71.1002C45.2996 70.8002 45.0996 70.3002 45.0996 69.6002C45.0996 69.1002 45.2996 68.6002 45.5996 68.3002C45.7996 68.0002 46.2996 67.8002 46.9996 67.6002C47.6996 67.4002 48.5996 67.3002 49.5996 67.3002V66.9002C49.5996 66.7002 49.5996 66.5002 49.5996 66.2002C49.5996 66.0002 49.4996 65.7002 49.3996 65.5002C49.2996 65.3002 49.0996 65.1002 48.8996 65.0002C48.6996 64.9002 48.2996 64.8002 47.8996 64.8002C47.3996 64.8002 46.9996 64.9002 46.7996 65.1002C46.5996 65.3002 46.3996 65.6002 46.3996 66.1002H46.2996C46.1996 66.1002 46.1996 66.1002 46.0996 66.1002C45.8996 66.1002 45.7996 66.1002 45.5996 66.0002C45.3996 65.9002 45.3996 65.8002 45.3996 65.7002C45.3996 65.5002 45.4996 65.4002 45.6996 65.2002C45.8996 65.0002 46.0996 64.9002 46.3996 64.7002C46.6996 64.5002 46.9996 64.4002 47.3996 64.3002C47.7996 64.2002 48.0996 64.2002 48.4996 64.2002C48.8996 64.2002 49.1996 64.3002 49.4996 64.4002C49.7996 64.6002 49.9996 64.8002 50.1996 65.1002C50.3996 65.4002 50.4996 65.8002 50.4996 66.3002C50.4996 66.6002 50.4996 66.9002 50.4996 67.4002C50.4996 67.8002 50.4996 68.2002 50.4996 68.7002C50.4996 69.0002 50.4996 69.3002 50.4996 69.6002C50.4996 69.9002 50.4996 70.1002 50.4996 70.3002C50.4996 70.6002 50.4996 70.7002 50.5996 70.8002C50.6996 70.8002 50.6996 70.9002 50.7996 70.9002H51.5996C51.6996 70.9002 51.6996 70.9002 51.6996 71.0002C51.6996 71.1002 51.6996 71.1002 51.6996 71.2002C51.6996 71.3002 51.5996 71.4002 51.5996 71.4002C51.4996 71.4002 51.3996 71.5002 51.2996 71.5002C51.1996 71.5002 50.9996 71.6002 50.7996 71.6002C50.5996 71.5002 50.3996 71.6002 50.2996 71.6002ZM49.5996 70.1002V68.0002C49.1996 68.0002 48.7996 67.9002 48.4996 67.9002C47.7996 67.9002 47.2996 68.0002 46.9996 68.1002C46.5996 68.2002 46.3996 68.4002 46.1996 68.6002C46.0996 68.9002 45.9996 69.2002 45.9996 69.5002C45.9996 70.0002 46.1996 70.3002 46.4996 70.5002C46.7996 70.7002 47.1996 70.8002 47.5996 70.8002C47.9996 70.8002 48.2996 70.7002 48.6996 70.6002C49.0996 70.5002 49.3996 70.3002 49.5996 70.1002Z" fill="white"/>
<path d="M61.2998 71.3998C61.1998 71.3998 61.1998 71.3998 61.1998 71.2998C61.1998 71.2998 61.1998 71.1998 61.1998 71.0998C61.1998 70.9998 61.1998 70.9998 61.2998 70.8998C61.5998 70.8998 61.8998 70.7998 61.9998 70.5998C62.0998 70.4998 62.1998 70.2998 62.1998 69.9998C62.1998 69.8998 62.1998 69.5998 62.1998 69.2998C62.1998 68.9998 62.1998 68.5998 62.1998 68.1998C62.1998 67.8998 62.1998 67.5998 62.1998 67.2998C62.1998 66.9998 62.1998 66.7998 62.1998 66.6998C62.1998 66.0998 61.9998 65.6998 61.6998 65.4998C61.3998 65.1998 60.9998 65.0998 60.5998 65.0998C60.1998 65.0998 59.7998 65.1998 59.3998 65.4998C58.9998 65.7998 58.7998 66.0998 58.5998 66.5998C58.5998 66.6998 58.5998 66.6998 58.5998 66.7998V68.4998C58.5998 68.8998 58.5998 69.2998 58.5998 69.5998C58.5998 69.8998 58.5998 70.1998 58.5998 70.3998C58.5998 70.4998 58.5998 70.5998 58.6998 70.6998C58.7998 70.7998 58.7998 70.7998 58.8998 70.7998C58.9998 70.7998 59.0998 70.7998 59.1998 70.7998C59.3998 70.7998 59.4998 70.7998 59.5998 70.7998C59.5998 70.7998 59.5998 70.8998 59.5998 70.9998C59.5998 71.0998 59.5998 71.1998 59.5998 71.1998C59.5998 71.2998 59.4998 71.2998 59.3998 71.2998H56.9998C56.8998 71.2998 56.7998 71.2998 56.7998 71.1998C56.7998 71.1998 56.7998 71.0998 56.7998 70.9998C56.7998 70.8998 56.7998 70.8998 56.8998 70.7998C57.2998 70.7998 57.4998 70.6998 57.5998 70.4998C57.6998 70.2998 57.7998 70.1998 57.7998 69.8998C57.7998 69.7998 57.7998 69.4998 57.7998 69.1998C57.7998 68.8998 57.7998 68.4998 57.7998 68.0998C57.7998 67.7998 57.7998 67.4998 57.7998 67.1998C57.7998 66.8998 57.7998 66.6998 57.7998 66.5998C57.7998 65.9998 57.5998 65.5998 57.2998 65.3998C56.9998 65.0998 56.5998 64.9998 56.1998 64.9998C55.7998 64.9998 55.3998 65.0998 55.0998 65.3998C54.7998 65.6998 54.4998 65.9998 54.2998 66.4998C54.2998 66.7998 54.2998 67.0998 54.2998 67.3998C54.2998 67.6998 54.2998 67.9998 54.2998 68.2998C54.2998 68.7998 54.2998 69.0998 54.2998 69.4998C54.2998 69.8998 54.2998 70.0998 54.2998 70.3998C54.2998 70.5998 54.3998 70.6998 54.5998 70.7998C54.6998 70.7998 54.7998 70.7998 54.9998 70.7998C55.1998 70.7998 55.2998 70.7998 55.3998 70.7998C55.3998 70.7998 55.3998 70.8998 55.3998 70.9998C55.3998 71.0998 55.3998 71.0998 55.3998 71.1998C55.3998 71.2998 55.2998 71.3998 55.2998 71.3998H55.1998H52.6998C52.5998 71.3998 52.4998 71.3998 52.4998 71.2998C52.4998 71.2998 52.4998 71.1998 52.4998 71.0998C52.4998 70.9998 52.4998 70.9998 52.5998 70.8998C52.9998 70.8998 53.1998 70.7998 53.2998 70.5998C53.3998 70.4998 53.4998 70.2998 53.4998 69.9998C53.4998 69.8998 53.4998 69.6998 53.4998 69.3998C53.4998 69.0998 53.4998 68.7998 53.4998 68.3998C53.4998 67.9998 53.4998 67.6998 53.4998 67.2998C53.4998 66.9998 53.4998 66.6998 53.4998 66.3998C53.4998 66.0998 53.4998 65.8998 53.4998 65.7998C53.4998 65.5998 53.4998 65.4998 53.3998 65.3998C53.2998 65.2998 53.1998 65.2998 52.9998 65.1998L52.3998 65.0998C52.2998 65.0998 52.2998 65.0998 52.2998 64.9998C52.2998 64.7998 52.2998 64.6998 52.3998 64.5998C52.5998 64.5998 52.7998 64.4998 52.9998 64.4998C53.1998 64.4998 53.3998 64.4998 53.5998 64.4998C53.7998 64.4998 53.9998 64.5998 54.0998 64.6998C54.1998 64.7998 54.1998 64.9998 54.1998 65.1998C54.1998 65.2998 54.1998 65.3998 54.1998 65.4998C54.4998 65.0998 54.7998 64.8998 55.1998 64.6998C55.5998 64.4998 55.9998 64.3998 56.3998 64.3998C56.8998 64.3998 57.2998 64.4998 57.5998 64.6998C57.8998 64.8998 58.1998 65.2998 58.2998 65.6998C58.5998 65.2998 58.8998 64.9998 59.3998 64.6998C59.9998 64.3998 60.4998 64.2998 60.9998 64.2998C61.5998 64.2998 62.0998 64.4998 62.4998 64.8998C62.8998 65.2998 63.0998 65.8998 63.0998 66.6998V68.4998C63.0998 68.8998 63.0998 69.2998 63.0998 69.5998C63.0998 69.8998 63.0998 70.1998 63.0998 70.3998C63.0998 70.4998 63.0998 70.5998 63.1998 70.6998C63.2998 70.7998 63.2998 70.7998 63.3998 70.7998C63.4998 70.7998 63.5998 70.7998 63.6998 70.7998C63.8998 70.7998 63.9998 70.7998 64.0998 70.7998C64.0998 70.7998 64.0998 70.8998 64.0998 70.9998C64.0998 71.0998 64.0998 71.1998 64.0998 71.1998C64.0998 71.2998 63.9998 71.2998 63.8998 71.2998H61.2998V71.3998Z" fill="white"/>
</svg>
