<svg width="65" height="80" viewBox="0 0 65 80" fill="none" xmlns="http://www.w3.org/2000/svg">
<path d="M1.11689 73.9641C1.01689 73.9641 0.966895 73.9141 0.966895 73.8141C0.966895 73.7741 0.971895 73.7191 0.981895 73.6491C0.991895 73.5691 1.01689 73.4991 1.05689 73.4391C1.38689 73.3991 1.62689 73.3091 1.77689 73.1691C1.93689 73.0191 2.01689 72.7541 2.01689 72.3741V64.9941C2.01689 64.7341 1.99689 64.5441 1.95689 64.4241C1.92689 64.3041 1.84189 64.2291 1.70189 64.1991C1.57189 64.1591 1.35189 64.1391 1.04189 64.1391C1.04189 64.0891 1.04689 64.0241 1.05689 63.9441C1.06689 63.8641 1.07689 63.7991 1.08689 63.7491C1.11689 63.6391 1.15189 63.5791 1.19189 63.5691C1.24189 63.5491 1.27189 63.5391 1.28189 63.5391H3.81689C3.91689 63.5391 3.96689 63.5891 3.96689 63.6891C3.96689 63.7291 3.95689 63.7891 3.93689 63.8691C3.91689 63.9391 3.88689 64.0041 3.84689 64.0641C3.50689 64.1141 3.26689 64.2041 3.12689 64.3341C2.98689 64.4541 2.91689 64.6891 2.91689 65.0391V69.1041L6.63689 64.8891C6.84689 64.6691 6.95189 64.4941 6.95189 64.3641C6.95189 64.2141 6.75689 64.1191 6.36689 64.0791C6.36689 64.0291 6.37189 63.9691 6.38189 63.8991C6.40189 63.8291 6.42689 63.7591 6.45689 63.6891C6.49689 63.6091 6.53189 63.5641 6.56189 63.5541C6.60189 63.5441 6.64189 63.5391 6.68189 63.5391H9.2019C9.2519 63.5391 9.2869 63.5491 9.30689 63.5691C9.3369 63.5791 9.3519 63.6191 9.3519 63.6891C9.3519 63.8291 9.32189 63.9591 9.26189 64.0791C9.01189 64.0991 8.78689 64.1441 8.5869 64.2141C8.3969 64.2741 8.2019 64.3791 8.00189 64.5291C7.81189 64.6791 7.58689 64.8941 7.32689 65.1741L4.41689 68.3841L6.63689 71.1441C7.02689 71.6341 7.36189 72.0241 7.64189 72.3141C7.92189 72.5941 8.16689 72.8091 8.3769 72.9591C8.59689 73.0991 8.80189 73.1941 8.9919 73.2441C9.1819 73.2841 9.3819 73.3041 9.59189 73.3041C9.59189 73.4941 9.55689 73.6791 9.4869 73.8591C9.36689 73.9291 9.23189 73.9791 9.0819 74.0091C8.9419 74.0291 8.79189 74.0391 8.63189 74.0391C8.40189 74.0391 8.12689 73.9341 7.80689 73.7241C7.49689 73.5041 7.13689 73.1441 6.72689 72.6441L3.86189 68.9991L2.91689 70.0491V72.3741C2.91689 72.7541 2.93689 73.0091 2.97689 73.1391C3.02689 73.2591 3.14689 73.3291 3.33689 73.3491C3.40689 73.3591 3.50189 73.3641 3.62189 73.3641C3.75189 73.3641 3.86689 73.3641 3.96689 73.3641C3.96689 73.4141 3.96189 73.4791 3.95189 73.5591C3.95189 73.6391 3.94189 73.7041 3.92189 73.7541C3.89189 73.8541 3.85689 73.9141 3.81689 73.9341C3.77689 73.9541 3.74689 73.9641 3.72689 73.9641H1.11689ZM15.6087 74.1141C15.4087 74.1141 15.2487 74.0291 15.1287 73.8591C15.0087 73.6791 14.9387 73.4541 14.9187 73.1841C14.5587 73.5241 14.1487 73.7791 13.6887 73.9491C13.2287 74.1091 12.7887 74.1891 12.3687 74.1891C11.8187 74.1891 11.3437 74.0191 10.9437 73.6791C10.5437 73.3291 10.3437 72.8391 10.3437 72.2091C10.3437 71.6591 10.4987 71.2241 10.8087 70.9041C11.1187 70.5741 11.6087 70.3291 12.2787 70.1691C12.9587 69.9991 13.8387 69.8841 14.9187 69.8241V69.4941C14.9187 69.2841 14.9087 69.0591 14.8887 68.8191C14.8687 68.5791 14.8037 68.3541 14.6937 68.1441C14.5937 67.9341 14.4237 67.7641 14.1837 67.6341C13.9437 67.4941 13.6087 67.4241 13.1787 67.4241C12.6887 67.4241 12.3237 67.5341 12.0837 67.7541C11.8437 67.9641 11.7037 68.2841 11.6637 68.7141C11.6237 68.7141 11.5787 68.7191 11.5287 68.7291C11.4787 68.7291 11.4287 68.7291 11.3787 68.7291C11.1987 68.7291 11.0287 68.7041 10.8687 68.6541C10.7087 68.6041 10.6287 68.4991 10.6287 68.3391C10.6287 68.1791 10.7187 68.0141 10.8987 67.8441C11.0787 67.6641 11.3187 67.4991 11.6187 67.3491C11.9187 67.1991 12.2487 67.0791 12.6087 66.9891C12.9687 66.8891 13.3237 66.8391 13.6737 66.8391C14.0337 66.8391 14.3737 66.9041 14.6937 67.0341C15.0237 67.1541 15.2887 67.3641 15.4887 67.6641C15.6887 67.9641 15.7787 68.3791 15.7587 68.9091C15.7487 69.1891 15.7387 69.5441 15.7287 69.9741C15.7287 70.3941 15.7287 70.8141 15.7287 71.2341C15.7287 71.5441 15.7287 71.8341 15.7287 72.1041C15.7387 72.3741 15.7437 72.6041 15.7437 72.7941C15.7537 73.0641 15.7837 73.2241 15.8337 73.2741C15.8937 73.3141 15.9787 73.3291 16.0887 73.3191C16.0987 73.3191 16.1037 73.3191 16.1037 73.3191L16.8537 73.2741C16.9137 73.2741 16.9437 73.3091 16.9437 73.3791C16.9437 73.4291 16.9287 73.5041 16.8987 73.6041C16.8787 73.7041 16.8437 73.7791 16.7937 73.8291C16.7337 73.8591 16.6237 73.8991 16.4637 73.9491C16.3137 73.9891 16.1537 74.0291 15.9837 74.0691C15.8237 74.0991 15.6987 74.1141 15.6087 74.1141ZM14.9037 72.6141L14.9187 70.5441C14.4987 70.5041 14.1237 70.4841 13.7937 70.4841C13.1337 70.4841 12.6237 70.5491 12.2637 70.6791C11.9037 70.8091 11.6537 70.9941 11.5137 71.2341C11.3737 71.4641 11.3037 71.7391 11.3037 72.0591C11.3037 72.5291 11.4537 72.8741 11.7537 73.0941C12.0537 73.3041 12.4087 73.4091 12.8187 73.4091C13.1787 73.4091 13.5437 73.3391 13.9137 73.1991C14.2937 73.0591 14.6237 72.8641 14.9037 72.6141ZM23.9504 74.0991C23.7104 74.0991 23.4904 74.0391 23.2904 73.9191C23.1004 73.7991 22.9004 73.6241 22.6904 73.3941L20.3954 70.5141L19.5854 71.2941C19.5854 71.3541 19.5854 71.4141 19.5854 71.4741C19.5854 71.7641 19.5854 72.0341 19.5854 72.2841C19.5854 72.5241 19.5904 72.7341 19.6004 72.9141C19.6104 73.0741 19.6404 73.1841 19.6904 73.2441C19.7404 73.2941 19.8254 73.3291 19.9454 73.3491C20.0154 73.3591 20.1204 73.3641 20.2604 73.3641C20.4004 73.3641 20.5204 73.3641 20.6204 73.3641C20.6204 73.4141 20.6154 73.4791 20.6054 73.5591C20.6054 73.6391 20.5954 73.7041 20.5754 73.7541C20.5454 73.8541 20.5104 73.9141 20.4704 73.9341C20.4304 73.9541 20.4004 73.9641 20.3804 73.9641H17.8754C17.7754 73.9641 17.7254 73.9141 17.7254 73.8141C17.7254 73.7741 17.7304 73.7191 17.7404 73.6491C17.7504 73.5691 17.7754 73.4991 17.8154 73.4391C18.1154 73.4091 18.3354 73.3191 18.4754 73.1691C18.6154 73.0191 18.6904 72.7891 18.7004 72.4791C18.7204 72.2091 18.7354 71.8391 18.7454 71.3691C18.7554 70.8991 18.7654 70.3791 18.7754 69.8091C18.7954 69.2391 18.8054 68.6591 18.8054 68.0691C18.8154 67.4791 18.8204 66.9291 18.8204 66.4191C18.8204 65.9791 18.8154 65.5741 18.8054 65.2041C18.8054 64.8241 18.7954 64.5691 18.7754 64.4391C18.7554 64.2591 18.7154 64.1391 18.6554 64.0791C18.5954 64.0091 18.4854 63.9641 18.3254 63.9441L17.7254 63.8841C17.6554 63.8841 17.6204 63.8441 17.6204 63.7641C17.6204 63.7041 17.6354 63.6341 17.6654 63.5541C17.6954 63.4741 17.7304 63.4091 17.7704 63.3591C17.9604 63.2991 18.1754 63.2541 18.4154 63.2241C18.6654 63.1841 18.8854 63.1641 19.0754 63.1641C19.3054 63.1641 19.4804 63.1991 19.6004 63.2691C19.7304 63.3291 19.7854 63.4891 19.7654 63.7491C19.7454 64.0191 19.7254 64.4091 19.7054 64.9191C19.6954 65.4191 19.6804 65.9841 19.6604 66.6141C19.6404 67.2341 19.6254 67.8791 19.6154 68.5491C19.6054 69.2091 19.5954 69.8341 19.5854 70.4241L21.8804 68.2041C22.1104 67.9741 22.2254 67.8141 22.2254 67.7241C22.2254 67.6341 22.0404 67.5891 21.6704 67.5891C21.6704 67.5391 21.6754 67.4791 21.6854 67.4091C21.7054 67.3391 21.7304 67.2741 21.7604 67.2141C21.8004 67.1341 21.8354 67.0891 21.8654 67.0791C21.9054 67.0691 21.9454 67.0641 21.9854 67.0641H24.1454C24.1954 67.0641 24.2304 67.0741 24.2504 67.0941C24.2804 67.1041 24.2954 67.1441 24.2954 67.2141C24.2954 67.3441 24.2654 67.4691 24.2054 67.5891C23.9854 67.6091 23.7954 67.6491 23.6354 67.7091C23.4854 67.7591 23.3154 67.8541 23.1254 67.9941C22.9354 68.1341 22.6754 68.3491 22.3454 68.6391L20.9504 69.9891C21.5204 70.7291 21.9954 71.3291 22.3754 71.7891C22.7654 72.2391 23.0904 72.5841 23.3504 72.8241C23.6204 73.0641 23.8604 73.2291 24.0704 73.3191C24.2904 73.3991 24.5154 73.4391 24.7454 73.4391C24.7454 73.5291 24.7404 73.6191 24.7304 73.7091C24.7204 73.7891 24.7004 73.8741 24.6704 73.9641C24.4004 74.0541 24.1604 74.0991 23.9504 74.0991ZM30.7551 74.1141C30.5551 74.1141 30.3951 74.0291 30.2751 73.8591C30.1551 73.6791 30.0851 73.4541 30.0651 73.1841C29.7051 73.5241 29.2951 73.7791 28.8351 73.9491C28.3751 74.1091 27.9351 74.1891 27.5151 74.1891C26.9651 74.1891 26.4901 74.0191 26.0901 73.6791C25.6901 73.3291 25.4901 72.8391 25.4901 72.2091C25.4901 71.6591 25.6451 71.2241 25.9551 70.9041C26.2651 70.5741 26.7551 70.3291 27.4251 70.1691C28.1051 69.9991 28.9851 69.8841 30.0651 69.8241V69.4941C30.0651 69.2841 30.0551 69.0591 30.0351 68.8191C30.0151 68.5791 29.9501 68.3541 29.8401 68.1441C29.7401 67.9341 29.5701 67.7641 29.3301 67.6341C29.0901 67.4941 28.7551 67.4241 28.3251 67.4241C27.8351 67.4241 27.4701 67.5341 27.2301 67.7541C26.9901 67.9641 26.8501 68.2841 26.8101 68.7141C26.7701 68.7141 26.7251 68.7191 26.6751 68.7291C26.6251 68.7291 26.5751 68.7291 26.5251 68.7291C26.3451 68.7291 26.1751 68.7041 26.0151 68.6541C25.8551 68.6041 25.7751 68.4991 25.7751 68.3391C25.7751 68.1791 25.8651 68.0141 26.0451 67.8441C26.2251 67.6641 26.4651 67.4991 26.7651 67.3491C27.0651 67.1991 27.3951 67.0791 27.7551 66.9891C28.1151 66.8891 28.4701 66.8391 28.8201 66.8391C29.1801 66.8391 29.5201 66.9041 29.8401 67.0341C30.1701 67.1541 30.4351 67.3641 30.6351 67.6641C30.8351 67.9641 30.9251 68.3791 30.9051 68.9091C30.8951 69.1891 30.8851 69.5441 30.8751 69.9741C30.8751 70.3941 30.8751 70.8141 30.8751 71.2341C30.8751 71.5441 30.8751 71.8341 30.8751 72.1041C30.8851 72.3741 30.8901 72.6041 30.8901 72.7941C30.9001 73.0641 30.9301 73.2241 30.9801 73.2741C31.0401 73.3141 31.1251 73.3291 31.2351 73.3191C31.2451 73.3191 31.2501 73.3191 31.2501 73.3191L32.0001 73.2741C32.0601 73.2741 32.0901 73.3091 32.0901 73.3791C32.0901 73.4291 32.0751 73.5041 32.0451 73.6041C32.0251 73.7041 31.9901 73.7791 31.9401 73.8291C31.8801 73.8591 31.7701 73.8991 31.6101 73.9491C31.4601 73.9891 31.3001 74.0291 31.1301 74.0691C30.9701 74.0991 30.8451 74.1141 30.7551 74.1141ZM30.0501 72.6141L30.0651 70.5441C29.6451 70.5041 29.2701 70.4841 28.9401 70.4841C28.2801 70.4841 27.7701 70.5491 27.4101 70.6791C27.0501 70.8091 26.8001 70.9941 26.6601 71.2341C26.5201 71.4641 26.4501 71.7391 26.4501 72.0591C26.4501 72.5291 26.6001 72.8741 26.9001 73.0941C27.2001 73.3041 27.5551 73.4091 27.9651 73.4091C28.3251 73.4091 28.6901 73.3391 29.0601 73.1991C29.4401 73.0591 29.7701 72.8641 30.0501 72.6141ZM36.0369 74.1891C35.3969 74.1891 34.8419 74.0441 34.3719 73.7541C33.9119 73.4541 33.5569 73.0391 33.3069 72.5091C33.0569 71.9791 32.9269 71.3741 32.9169 70.6941C32.9169 69.9341 33.0619 69.2691 33.3519 68.6991C33.6519 68.1191 34.0619 67.6641 34.5819 67.3341C35.1119 67.0041 35.7119 66.8391 36.3819 66.8391C37.0219 66.8391 37.5719 66.9841 38.0319 67.2741C38.5019 67.5641 38.8669 67.9691 39.1269 68.4891C39.3869 69.0091 39.5169 69.6141 39.5169 70.3041C39.5269 71.0641 39.3819 71.7391 39.0819 72.3291C38.7819 72.9091 38.3669 73.3641 37.8369 73.6941C37.3169 74.0241 36.7169 74.1891 36.0369 74.1891ZM36.3369 73.4541C37.0669 73.4541 37.6269 73.2041 38.0169 72.7041C38.4069 72.2041 38.6019 71.5191 38.6019 70.6491C38.6019 69.7091 38.3719 68.9641 37.9119 68.4141C37.4619 67.8541 36.8569 67.5741 36.0969 67.5741C35.3769 67.5741 34.8169 67.8291 34.4169 68.3391C34.0269 68.8391 33.8319 69.5191 33.8319 70.3791C33.8319 71.3191 34.0569 72.0691 34.5069 72.6291C34.9569 73.1791 35.5669 73.4541 36.3369 73.4541ZM43.3649 74.1891C42.8249 74.1891 42.3899 74.0141 42.0599 73.6641C41.7299 73.3041 41.5699 72.7741 41.5799 72.0741L41.6099 67.7991H40.4849C40.3849 67.7991 40.3349 67.7491 40.3349 67.6491C40.3349 67.6091 40.3549 67.5191 40.3949 67.3791C40.4449 67.2291 40.4899 67.1241 40.5299 67.0641H41.6099V65.8041C41.6099 65.6641 41.6699 65.5741 41.7899 65.5341C41.8899 65.4941 42.0249 65.4541 42.1949 65.4141C42.3749 65.3741 42.5299 65.3491 42.6599 65.3391C42.6399 65.4591 42.6149 65.6741 42.5849 65.9841C42.5649 66.2841 42.5449 66.6441 42.5249 67.0641H43.7549C44.2349 67.0641 44.6349 67.0391 44.9549 66.9891C44.9349 67.1291 44.9099 67.2641 44.8799 67.3941C44.8599 67.5241 44.8399 67.6041 44.8199 67.6341C44.7699 67.7441 44.6549 67.7991 44.4749 67.7991H42.4949C42.4849 68.2291 42.4749 68.6841 42.4649 69.1641C42.4549 69.6341 42.4499 70.1041 42.4499 70.5741C42.4499 70.8141 42.4499 71.0491 42.4499 71.2791C42.4499 71.5091 42.4549 71.7341 42.4649 71.9541C42.4849 72.4441 42.6099 72.7991 42.8399 73.0191C43.0699 73.2391 43.3799 73.3491 43.7699 73.3491C44.2199 73.3491 44.6999 73.1941 45.2099 72.8841C45.2399 72.9141 45.2699 72.9891 45.2999 73.1091C45.3399 73.2191 45.3599 73.3091 45.3599 73.3791C45.3599 73.4791 45.2999 73.5641 45.1799 73.6341C44.9299 73.7941 44.6449 73.9291 44.3249 74.0391C44.0049 74.1391 43.6849 74.1891 43.3649 74.1891ZM51.3801 74.1141C51.1801 74.1141 51.0201 74.0291 50.9001 73.8591C50.7801 73.6791 50.7101 73.4541 50.6901 73.1841C50.3301 73.5241 49.9201 73.7791 49.4601 73.9491C49.0001 74.1091 48.5601 74.1891 48.1401 74.1891C47.5901 74.1891 47.1151 74.0191 46.7151 73.6791C46.3151 73.3291 46.1151 72.8391 46.1151 72.2091C46.1151 71.6591 46.2701 71.2241 46.5801 70.9041C46.8901 70.5741 47.3801 70.3291 48.0501 70.1691C48.7301 69.9991 49.6101 69.8841 50.6901 69.8241V69.4941C50.6901 69.2841 50.6801 69.0591 50.6601 68.8191C50.6401 68.5791 50.5751 68.3541 50.4651 68.1441C50.3651 67.9341 50.1951 67.7641 49.9551 67.6341C49.7151 67.4941 49.3801 67.4241 48.9501 67.4241C48.4601 67.4241 48.0951 67.5341 47.8551 67.7541C47.6151 67.9641 47.4751 68.2841 47.4351 68.7141C47.3951 68.7141 47.3501 68.7191 47.3001 68.7291C47.2501 68.7291 47.2001 68.7291 47.1501 68.7291C46.9701 68.7291 46.8001 68.7041 46.6401 68.6541C46.4801 68.6041 46.4001 68.4991 46.4001 68.3391C46.4001 68.1791 46.4901 68.0141 46.6701 67.8441C46.8501 67.6641 47.0901 67.4991 47.3901 67.3491C47.6901 67.1991 48.0201 67.0791 48.3801 66.9891C48.7401 66.8891 49.0951 66.8391 49.4451 66.8391C49.8051 66.8391 50.1451 66.9041 50.4651 67.0341C50.7951 67.1541 51.0601 67.3641 51.2601 67.6641C51.4601 67.9641 51.5501 68.3791 51.5301 68.9091C51.5201 69.1891 51.5101 69.5441 51.5001 69.9741C51.5001 70.3941 51.5001 70.8141 51.5001 71.2341C51.5001 71.5441 51.5001 71.8341 51.5001 72.1041C51.5101 72.3741 51.5151 72.6041 51.5151 72.7941C51.5251 73.0641 51.5551 73.2241 51.6051 73.2741C51.6651 73.3141 51.7501 73.3291 51.8601 73.3191C51.8701 73.3191 51.8751 73.3191 51.8751 73.3191L52.6251 73.2741C52.6851 73.2741 52.7151 73.3091 52.7151 73.3791C52.7151 73.4291 52.7001 73.5041 52.6701 73.6041C52.6501 73.7041 52.6151 73.7791 52.5651 73.8291C52.5051 73.8591 52.3951 73.8991 52.2351 73.9491C52.0851 73.9891 51.9251 74.0291 51.7551 74.0691C51.5951 74.0991 51.4701 74.1141 51.3801 74.1141ZM50.6751 72.6141L50.6901 70.5441C50.2701 70.5041 49.8951 70.4841 49.5651 70.4841C48.9051 70.4841 48.3951 70.5491 48.0351 70.6791C47.6751 70.8091 47.4251 70.9941 47.2851 71.2341C47.1451 71.4641 47.0751 71.7391 47.0751 72.0591C47.0751 72.5291 47.2251 72.8741 47.5251 73.0941C47.8251 73.3041 48.1801 73.4091 48.5901 73.4091C48.9501 73.4091 49.3151 73.3391 49.6851 73.1991C50.0651 73.0591 50.3951 72.8641 50.6751 72.6141ZM53.3919 73.9641C53.2919 73.9641 53.2419 73.9141 53.2419 73.8141C53.2419 73.7741 53.2469 73.7191 53.2569 73.6491C53.2669 73.5691 53.2919 73.4991 53.3319 73.4391C53.6719 73.4091 53.9369 73.3241 54.1269 73.1841C54.3269 73.0441 54.4369 72.8091 54.4569 72.4791C54.4769 72.2491 54.4919 71.8891 54.5019 71.3991C54.5119 70.8991 54.5219 70.3291 54.5319 69.6891C54.5519 69.0491 54.5619 68.4041 54.5619 67.7541C54.5719 67.1041 54.5769 66.5141 54.5769 65.9841C54.5769 65.6141 54.5719 65.2941 54.5619 65.0241C54.5619 64.7441 54.5569 64.5491 54.5469 64.4391C54.5369 64.2591 54.4969 64.1391 54.4269 64.0791C54.3669 64.0091 54.2569 63.9641 54.0969 63.9441L53.4819 63.8841C53.4119 63.8841 53.3769 63.8441 53.3769 63.7641C53.3769 63.7041 53.3919 63.6341 53.4219 63.5541C53.4519 63.4741 53.4869 63.4091 53.5269 63.3591C53.7169 63.2991 53.9369 63.2541 54.1869 63.2241C54.4369 63.1841 54.6569 63.1641 54.8469 63.1641C55.0769 63.1641 55.2569 63.1991 55.3869 63.2691C55.5269 63.3291 55.5769 63.4891 55.5369 63.7491C55.4969 64.0191 55.4619 64.4091 55.4319 64.9191C55.4119 65.4191 55.3919 65.9841 55.3719 66.6141C55.3619 67.2441 55.3519 67.8891 55.3419 68.5491C55.3419 69.2091 55.3419 69.8391 55.3419 70.4391C55.3419 70.9591 55.3419 71.4291 55.3419 71.8491C55.3519 72.2591 55.3619 72.5791 55.3719 72.8091C55.3819 72.9891 55.4219 73.1191 55.4919 73.1991C55.5719 73.2691 55.6719 73.3141 55.7919 73.3341C55.8719 73.3441 55.9919 73.3541 56.1519 73.3641C56.3119 73.3641 56.4419 73.3641 56.5419 73.3641C56.5419 73.4141 56.5369 73.4791 56.5269 73.5591C56.5269 73.6391 56.5169 73.7041 56.4969 73.7541C56.4669 73.8541 56.4319 73.9141 56.3919 73.9341C56.3519 73.9541 56.3219 73.9641 56.3019 73.9641H53.3919ZM63.6184 74.0991C63.3784 74.0991 63.1584 74.0391 62.9584 73.9191C62.7684 73.7991 62.5684 73.6241 62.3584 73.3941L60.0634 70.5141L59.2534 71.2941C59.2534 71.3541 59.2534 71.4141 59.2534 71.4741C59.2534 71.7641 59.2534 72.0341 59.2534 72.2841C59.2534 72.5241 59.2584 72.7341 59.2684 72.9141C59.2784 73.0741 59.3084 73.1841 59.3584 73.2441C59.4084 73.2941 59.4934 73.3291 59.6134 73.3491C59.6834 73.3591 59.7884 73.3641 59.9284 73.3641C60.0684 73.3641 60.1884 73.3641 60.2884 73.3641C60.2884 73.4141 60.2834 73.4791 60.2734 73.5591C60.2734 73.6391 60.2634 73.7041 60.2434 73.7541C60.2134 73.8541 60.1784 73.9141 60.1384 73.9341C60.0984 73.9541 60.0684 73.9641 60.0484 73.9641H57.5434C57.4434 73.9641 57.3934 73.9141 57.3934 73.8141C57.3934 73.7741 57.3984 73.7191 57.4084 73.6491C57.4184 73.5691 57.4434 73.4991 57.4834 73.4391C57.7834 73.4091 58.0034 73.3191 58.1434 73.1691C58.2834 73.0191 58.3584 72.7891 58.3684 72.4791C58.3884 72.2091 58.4034 71.8391 58.4134 71.3691C58.4234 70.8991 58.4334 70.3791 58.4434 69.8091C58.4634 69.2391 58.4734 68.6591 58.4734 68.0691C58.4834 67.4791 58.4884 66.9291 58.4884 66.4191C58.4884 65.9791 58.4834 65.5741 58.4734 65.2041C58.4734 64.8241 58.4634 64.5691 58.4434 64.4391C58.4234 64.2591 58.3834 64.1391 58.3234 64.0791C58.2634 64.0091 58.1534 63.9641 57.9934 63.9441L57.3934 63.8841C57.3234 63.8841 57.2884 63.8441 57.2884 63.7641C57.2884 63.7041 57.3034 63.6341 57.3334 63.5541C57.3634 63.4741 57.3984 63.4091 57.4384 63.3591C57.6284 63.2991 57.8434 63.2541 58.0834 63.2241C58.3334 63.1841 58.5534 63.1641 58.7434 63.1641C58.9734 63.1641 59.1484 63.1991 59.2684 63.2691C59.3984 63.3291 59.4534 63.4891 59.4334 63.7491C59.4134 64.0191 59.3934 64.4091 59.3734 64.9191C59.3634 65.4191 59.3484 65.9841 59.3284 66.6141C59.3084 67.2341 59.2934 67.8791 59.2834 68.5491C59.2734 69.2091 59.2634 69.8341 59.2534 70.4241L61.5484 68.2041C61.7784 67.9741 61.8934 67.8141 61.8934 67.7241C61.8934 67.6341 61.7084 67.5891 61.3384 67.5891C61.3384 67.5391 61.3434 67.4791 61.3534 67.4091C61.3734 67.3391 61.3984 67.2741 61.4284 67.2141C61.4684 67.1341 61.5034 67.0891 61.5334 67.0791C61.5734 67.0691 61.6134 67.0641 61.6534 67.0641H63.8134C63.8634 67.0641 63.8984 67.0741 63.9184 67.0941C63.9484 67.1041 63.9634 67.1441 63.9634 67.2141C63.9634 67.3441 63.9334 67.4691 63.8734 67.5891C63.6534 67.6091 63.4634 67.6491 63.3034 67.7091C63.1534 67.7591 62.9834 67.8541 62.7934 67.9941C62.6034 68.1341 62.3434 68.3491 62.0134 68.6391L60.6184 69.9891C61.1884 70.7291 61.6634 71.3291 62.0434 71.7891C62.4334 72.2391 62.7584 72.5841 63.0184 72.8241C63.2884 73.0641 63.5284 73.2291 63.7384 73.3191C63.9584 73.3991 64.1834 73.4391 64.4134 73.4391C64.4134 73.5291 64.4084 73.6191 64.3984 73.7091C64.3884 73.7891 64.3684 73.8741 64.3384 73.9641C64.0684 74.0541 63.8284 74.0991 63.6184 74.0991Z" fill="white"/>
<path d="M56.5047 39.1767C58.1394 36.4178 59 33.2792 59 30.0491C59 23.0904 55.0136 17.0436 49.2013 14.066C46.0052 5.62431 37.8938 0 28.8042 0C22.9802 0 17.5046 2.26439 13.3862 6.3765C9.26785 10.4886 7 15.9559 7 21.771C7 25.7481 8.07575 29.6104 10.1174 32.9923L7.11505 41.3516C6.9025 41.9422 7.0507 42.6028 7.4953 43.0468C7.9399 43.4907 8.60095 43.6387 9.1931 43.4264L17.5657 40.4287C20.9542 42.4679 24.8224 43.5413 28.8049 43.5413C28.9252 43.5413 29.048 43.54 29.1715 43.5374C32.3376 46.3139 36.4853 48 41.021 48C44.2554 48 47.3988 47.1407 50.1626 45.5085L56.8108 47.889C57.4023 48.1012 58.064 47.9533 58.5086 47.5094C58.9532 47.0654 59.1014 46.4054 58.8888 45.8141L56.5047 39.1767ZM17.2121 37.1083L11.3361 39.2124L13.4434 33.3454C13.6157 32.8664 13.5526 32.3342 13.2731 31.9085C11.2952 28.8945 10.25 25.3892 10.25 21.771C10.25 11.5556 18.5732 3.24504 28.8042 3.24504C35.5246 3.24504 41.6164 6.85807 44.8826 12.5161C43.6379 12.2429 42.3457 12.0975 41.0203 12.0975C31.1065 12.0975 23.0413 20.1504 23.0413 30.0491C23.0413 33.7724 24.1827 37.2349 26.1347 40.1061C23.4697 39.7219 20.9217 38.7633 18.6512 37.2784C18.2248 36.9993 17.6918 36.9364 17.2121 37.1083ZM53.1799 39.533L54.6677 43.675L50.5201 42.1894C50.0404 42.0174 49.5074 42.0804 49.081 42.3595C46.6844 43.9268 43.8979 44.7556 41.021 44.7556C32.8992 44.7556 26.292 38.1584 26.292 30.0491C26.292 21.9397 32.8992 15.3426 41.021 15.3426C49.1427 15.3426 55.75 21.9397 55.75 30.0491C55.75 32.9216 54.9199 35.7045 53.3502 38.0961C53.0707 38.5219 53.0076 39.0541 53.1799 39.533ZM34.3812 30.0491C34.3812 31.1693 33.4719 32.0772 32.35 32.0772C31.2281 32.0772 30.3187 31.1693 30.3187 30.0491C30.3187 28.9289 31.2281 28.0209 32.35 28.0209C33.4719 28.0209 34.3812 28.9289 34.3812 30.0491ZM43.1413 30.0491C43.1413 31.1693 42.2319 32.0772 41.11 32.0772C39.9881 32.0772 39.0788 31.1693 39.0788 30.0491C39.0788 28.9289 39.9881 28.0209 41.11 28.0209C42.2313 28.0209 43.1413 28.9289 43.1413 30.0491ZM51.9007 30.0491C51.9007 31.1693 50.9914 32.0772 49.8695 32.0772C48.7476 32.0772 47.8382 31.1693 47.8382 30.0491C47.8382 28.9289 48.7476 28.0209 49.8695 28.0209C50.9914 28.0209 51.9007 28.9289 51.9007 30.0491Z" fill="white"/>
</svg>
