<svg width="120" height="64" viewBox="0 0 120 64" fill="none" xmlns="http://www.w3.org/2000/svg">
<path d="M17 29.8248C22.332 29.2744 25.256 24.5272 26.1504 23.0137L26.46 23.1856C24.7744 26.2128 21.5752 30.4096 15.1424 30.788C7.67767 31.1664 0.212918 27.1072 0.00651961 18.1977C-0.268679 8.84094 8.22807 4.47217 14.1792 4.47217C17.2752 4.47217 21.5752 5.88256 24.396 7.32735L23.5704 11.7993H23.2608C21.9536 8.56574 16.828 3.88737 11.7368 5.09136C5.09769 6.63935 2.6553 15.1705 4.92569 21.6721C6.92088 27.348 11.5304 30.3752 17 29.8248Z" fill="white"/>
<path d="M72.349 7.63695L69.0466 12.2809L68.6682 12.0745C68.565 8.97854 67.0514 4.98816 64.1274 5.43536C58.8299 6.26096 58.1075 20.1929 58.1075 24.8024V26.9008C58.1075 28.7928 58.4859 29.6184 59.3115 30.1C59.3115 30.2032 59.3115 30.4784 59.3115 30.4784H52.6035C52.6035 30.4784 52.6035 30.2032 52.6035 30.1C53.4635 29.6184 53.8419 28.7928 53.8419 26.9008V8.63454C53.8419 6.74255 53.6699 6.19216 52.6035 6.05456C52.6035 5.95136 52.6035 5.67616 52.6035 5.67616L57.6947 4.47217H58.1419V18.9545C58.6923 12.4185 60.2059 4.47217 65.9162 4.47217C68.8058 4.47217 70.4914 5.50416 72.349 7.63695Z" fill="white"/>
<path d="M49.2665 26.0062H43.797V18.4383C42.3866 23.1855 39.4282 26.3502 34.2338 26.3502C29.7963 26.3502 25.4619 24.2174 24.7739 20.3303C23.8451 14.8263 27.1475 11.5583 31.3099 9.83834C29.8995 6.70796 31.5851 0 38.8434 0C43.3154 0 48.097 2.37358 48.097 9.04714V22.4631C48.097 24.355 48.4754 25.1806 49.3009 25.6622C49.2665 25.731 49.2665 26.0062 49.2665 26.0062ZM43.797 17.4751V9.15034C43.5218 9.04714 42.2146 8.66874 40.5634 8.66874C34.681 8.66874 26.6659 11.5927 29.0051 21.1215C29.6931 24.0454 32.8579 25.8342 35.541 25.6622C40.2538 25.3526 42.7306 21.3623 43.797 17.4751ZM31.8603 9.63194C34.7842 8.56555 38.0178 8.18715 40.5634 8.18715C41.8018 8.18715 42.9026 8.39355 43.797 8.66874V8.29035C43.797 4.19677 42.1802 0.550396 38.3274 0.550396C33.477 0.550396 30.2435 5.22877 31.8603 9.63194Z" fill="white"/>
<path d="M91.1663 10.4231L86.5567 21.8783L88.2767 25.9718H84.0111L77.3032 10.1823C75.0328 4.88477 73.8976 2.54558 71.2832 0.378398V0H79.5736V0.447197C78.1632 1.89199 78.6448 3.37118 79.8831 6.39836L86.3503 21.4311L90.7879 10.3887C92.7831 5.40077 93.3679 2.44238 90.9943 0.447197V0H97.3926V0.447197C95.0879 2.82078 93.1959 5.46957 91.1663 10.4231Z" fill="white"/>
<path d="M119.374 20.5024C119.064 24.3552 115.659 29.412 107.953 29.412C100.488 29.412 93.2989 25.7312 93.0925 16.8216C92.8173 7.4649 101.314 3.40573 107.265 3.09613C111.875 2.88973 118.204 5.09132 118.961 11.6273C118.479 11.6273 115.108 11.6273 115.108 11.6273H113.904C117 12.4529 119.821 15.5832 119.374 20.5024ZM111.703 11.6273H97.702C97.014 14.4825 97.1516 17.6816 98.0804 20.296C100.076 25.972 104.135 28.4488 109.639 28.2424C114.283 28.036 118.342 24.8368 118.892 20.6056C119.546 14.9985 115.831 11.6273 111.703 11.6273ZM97.8052 11.2145H115.074C114.386 6.50171 110.155 2.71773 104.857 3.74972C101.176 4.43772 98.7684 7.5337 97.8052 11.2145Z" fill="white"/>
<path d="M54.6678 62.1947C54.6678 62.2979 54.6678 62.5731 54.6678 62.5731H48.0287C48.0287 62.5731 48.0287 62.2979 48.0287 62.1947C48.8543 61.7131 49.0951 60.7843 48.9575 58.9956C48.7511 57.2068 47.9943 48.0564 47.7191 45.27C47.2719 41.2109 45.7239 36.6013 41.4927 37.5301C36.5048 38.5965 35.8856 46.99 35.8168 52.666V58.9956C35.8168 60.8875 36.1952 61.7131 37.0208 62.1947C37.0208 62.2979 37.0208 62.5731 37.0208 62.5731H30.3128C30.3128 62.5731 30.3128 62.2979 30.3128 62.1947C31.1384 61.7131 31.5168 60.8875 31.5168 58.9956V45.27C31.5168 41.1765 29.6248 36.7389 25.3936 37.5301C19.3393 38.6653 19.0641 49.9828 19.0641 54.558V58.9956C19.0641 60.8875 19.5113 61.7131 20.3025 62.1947C20.3025 62.2979 20.3025 62.5731 20.3025 62.5731H13.6289C13.6289 62.5731 13.6289 62.2979 13.6289 62.1947C14.4545 61.7131 14.8673 60.8875 14.8673 58.9956V40.7293C14.8673 38.8373 14.6953 38.2869 13.6289 38.1493C13.6289 38.0461 13.6289 37.7709 13.6289 37.7709L18.7201 36.5669H19.0985V48.5724C19.6833 42.8277 21.3001 36.5669 27.8016 36.5669C31.964 36.5669 35.5416 40.1445 35.748 46.0956L35.8168 46.6804C36.4704 41.4173 38.4655 36.5669 43.9351 36.5669C48.2007 36.5669 51.2279 39.7661 51.8815 46.0956C52.4663 51.3244 52.9479 57.0348 53.1887 59.03C53.3607 60.9563 53.8423 61.7131 54.6678 62.1947Z" fill="white"/>
<path d="M81.328 50.1206C81.0184 53.9734 77.6128 59.0301 69.9073 59.0301C62.4425 59.0301 55.253 55.3494 55.0466 46.4398C54.7714 37.0831 63.2681 33.0239 69.2193 32.7143C73.8288 32.5079 80.1584 34.7095 80.9152 41.2454C80.4336 41.2454 77.0624 41.2454 77.0624 41.2454H75.8584C78.9544 42.071 81.7752 45.2014 81.328 50.1206ZM73.6568 41.2454H59.6561C58.9681 44.1006 59.1057 47.2998 60.0345 49.9142C62.0297 55.5902 66.0889 58.0669 71.5929 57.8605C76.2368 57.6541 80.296 54.455 80.8464 50.2238C81.5 44.6166 77.7504 41.2454 73.6568 41.2454ZM59.7593 40.8326H77.028C76.34 36.1199 72.1088 32.3359 66.8113 33.3679C63.0961 34.0559 60.7225 37.1519 59.7593 40.8326Z" fill="white"/>
<path d="M107.437 54.4204C107.128 58.2732 103.722 63.3299 96.0166 63.3299C88.5519 63.3299 81.3623 59.6492 81.1559 50.7396C80.8807 41.3829 89.3775 37.3237 95.3286 37.0141C99.9382 36.8077 106.268 39.0093 107.025 45.5452C106.543 45.5452 103.172 45.5452 103.172 45.5452H101.968C105.029 46.3708 107.85 49.5012 107.437 54.4204ZM99.7318 45.5452H85.7311C85.0431 48.4004 85.1807 51.5996 86.1095 54.214C88.1047 59.89 92.1639 62.3667 97.6678 62.1603C102.312 61.9539 106.371 58.7548 106.921 54.5236C107.575 48.9164 103.86 45.5452 99.7318 45.5452ZM85.8343 45.1324H103.103C102.415 40.4197 98.1838 36.6357 92.8863 37.6677C89.2055 38.3557 86.8319 41.4517 85.8343 45.1324Z" fill="white"/>
<path d="M109.363 58.7891C109.933 58.7891 110.395 58.327 110.395 57.7571C110.395 57.1871 109.933 56.7251 109.363 56.7251C108.793 56.7251 108.331 57.1871 108.331 57.7571C108.331 58.327 108.793 58.7891 109.363 58.7891Z" fill="white"/>
<path d="M106.13 63.3301C106.7 63.3301 107.162 62.8681 107.162 62.2981C107.162 61.7282 106.7 61.2661 106.13 61.2661C105.56 61.2661 105.098 61.7282 105.098 62.2981C105.098 62.8681 105.56 63.3301 106.13 63.3301Z" fill="white"/>
</svg>
