<svg width="284" height="35" viewBox="0 0 284 35" fill="none" xmlns="http://www.w3.org/2000/svg">
<g clip-path="url(#clip0_64_200)">
<path d="M22.1001 33.1C29.1001 32.4 32.9002 26.2 34.0001 24.2L34.4002 24.4C32.2001 28.3 28.1001 33.8 19.7001 34.3C10.0001 34.8 0.300148 29.5 0.000148434 17.9C-0.299852 5.7 10.7001 0 18.5001 0C22.5001 0 28.2001 1.8 31.8001 3.7L30.7001 9.5H30.3001C28.6001 5.3 21.9001 -0.8 15.3001 0.8C6.60015 2.8 3.50015 14 6.40015 22.4C9.00015 29.8 15.0001 33.8 22.1001 33.1Z" fill="white"/>
<path d="M70.1005 33.9H63.0005V24C61.2005 30.2 57.3005 34.3 50.5005 34.3C44.7005 34.3 39.1005 31.6 38.2005 26.5C37.0005 19.3 41.3005 15.1 46.7005 12.8C44.9005 8.8 47.1005 0 56.5005 0C62.3005 0 68.5005 3.1 68.5005 11.8V29.3C68.5005 31.8 69.0005 32.8 70.0005 33.5C70.1005 33.6 70.1005 33.9 70.1005 33.9ZM63.0005 22.8V11.9C62.6005 11.8 61.0005 11.3 58.8005 11.3C51.1005 11.3 40.7005 15.1 43.7005 27.5C44.6005 31.3 48.7005 33.6 52.2005 33.4C58.3005 33.1 61.6005 27.8 63.0005 22.8ZM47.4005 12.6C51.2005 11.2 55.4005 10.7 58.7005 10.7C60.3005 10.7 61.7005 11 62.9005 11.3V10.8C62.9005 5.4 60.8005 0.7 55.8005 0.7C49.5005 0.7 45.3005 6.9 47.4005 12.6Z" fill="white"/>
<path d="M100.7 4.2L96.4 10.3L96 10C95.9 6 93.9 0.8 90.1 1.3C83.2 2.4 82.3 20.5 82.3 26.5V29.2C82.3 31.7 82.8 32.7 83.8 33.4C83.8 33.5 83.8 33.9 83.8 33.9H75C75 33.9 75 33.5 75 33.4C76.1 32.8 76.6 31.7 76.6 29.2V5.4C76.6 2.9 76.4 2.2 75 2C75 1.9 75 1.5 75 1.5L81.7 0H82.3V18.9C82.9 10.4 84.9 0 92.4 0C96.2 0 98.3 1.4 100.7 4.2Z" fill="white"/>
<path d="M128 13.6L122 28.5L124.3 33.9H118.7L110 13.3C107 6.4 105.6 3.4 102.2 0.5V0H113V0.6C111.2 2.5 111.8 4.4 113.4 8.3L121.8 27.9L127.6 13.5C130.2 7 131 3.1 127.9 0.5V0H136.2V0.6C133.1 3.7 130.6 7.1 128 13.6Z" fill="white"/>
<path d="M171.1 22.7C170.7 27.7 166.2 34.3 156.2 34.3C146.5 34.3 137.1 29.5 136.8 17.9C136.5 5.69998 147.6 0.399979 155.3 -2.1169e-05C161.3 -0.300021 169.5 2.59998 170.5 11.1C169.9 11.1 165.5 11.1 165.5 11.1H164C168 12.2 171.7 16.3 171.1 22.7ZM161.1 11.2H142.9C142 14.9 142.2 19.1 143.4 22.5C146 29.9 151.3 33.1 158.5 32.9C164.6 32.6 169.8 28.5 170.5 23C171.3 15.5 166.5 11.2 161.1 11.2ZM143 10.6H165.5C164.6 4.49998 159.1 -0.500021 152.2 0.899979C147.4 1.79998 144.3 5.79998 143 10.6Z" fill="white"/>
<path d="M245.8 33.4C245.8 33.5 245.8 33.9 245.8 33.9H237.1C237.1 33.9 237.1 33.5 237.1 33.4C238.2 32.8 238.5 31.6 238.3 29.2C238 26.9 237 15 236.7 11.3C236.1 6 234.1 0 228.6 1.2C222.1 2.6 221.3 13.5 221.2 20.9V29.1C221.2 31.6 221.7 32.6 222.7 33.3C222.7 33.4 222.7 33.8 222.7 33.8H214C214 33.8 214 33.4 214 33.3C215.1 32.7 215.5 31.6 215.5 29.1V11.4C215.5 6 213 0.3 207.5 1.3C199.6 2.8 199.3 17.5 199.3 23.5V29.3C199.3 31.8 199.9 32.8 200.9 33.5C200.9 33.6 200.9 34 200.9 34H192.2C192.2 34 192.2 33.6 192.2 33.5C193.3 32.9 193.8 31.8 193.8 29.3V5.4C193.8 2.9 193.6 2.2 192.2 2C192.2 1.9 192.2 1.5 192.2 1.5L198.8 0H199.3V15.6C200.2 8.2 202.3 0 210.8 0C216.2 0 220.9 4.7 221.2 12.4L221.3 13.2C222.1 6.4 224.7 0 231.8 0C237.4 0 241.3 4.2 242.2 12.4C243 19.2 243.6 26.6 243.9 29.2C244.1 31.8 244.7 32.8 245.8 33.4Z" fill="white"/>
<path d="M283.6 22.7C283.2 27.7 278.7 34.3 268.7 34.3C259 34.3 249.6 29.5 249.3 17.9C249 5.69998 260.1 0.399979 267.8 -2.1169e-05C273.8 -0.300021 282 2.59998 283 11.1C282.4 11.1 278 11.1 278 11.1H276.5C280.5 12.2 284.2 16.3 283.6 22.7ZM273.6 11.2H255.4C254.5 14.9 254.7 19.1 255.9 22.5C258.5 29.9 263.8 33.1 271 32.9C277.1 32.6 282.3 28.5 283 23C283.8 15.5 279 11.2 273.6 11.2ZM255.5 10.6H278C277.1 4.49998 271.6 -0.500021 264.7 0.899979C259.9 1.79998 256.8 5.79998 255.5 10.6Z" fill="white"/>
</g>
<defs>
<clipPath id="clip0_64_200">
<rect width="283.7" height="34.4" fill="white"/>
</clipPath>
</defs>
</svg>
