<svg width="225" height="63" viewBox="0 0 225 63" fill="none" xmlns="http://www.w3.org/2000/svg">
<path d="M53.5 50.4C53.5 50.5 53.5 50.9 53.5 50.9H44.8C44.8 50.9 44.8 50.5 44.8 50.4C45.9 49.8 46.2 48.6 46 46.2C45.7 43.9 44.7 32 44.4 28.3C43.8 23.1 41.8 17.1 36.3 18.3C29.8 19.7 29 30.6 28.9 38V46.2C28.9 48.7 29.4 49.7 30.4 50.4C30.4 50.5 30.4 50.9 30.4 50.9H21.7C21.7 50.9 21.7 50.5 21.7 50.4C22.8 49.8 23.2 48.7 23.2 46.2V28.4C23.2 23 20.7 17.3 15.2 18.3C7.3 19.8 7 34.5 7 40.5V46.3C7 48.8 7.6 49.8 8.6 50.5C8.6 50.6 8.6 51 8.6 51H0C0 51 0 50.6 0 50.5C1.1 49.9 1.6 48.8 1.6 46.3V22.4C1.6 19.9 1.4 19.2 0 19C0 18.9 0 18.5 0 18.5L6.6 17H7.1V32.6C7.9 25.1 10 17 18.4 17C23.8 17 28.5 21.7 28.8 29.4L28.9 30.2C29.7 23.4 32.4 17 39.5 17C45.1 17 49 21.2 49.9 29.4C50.7 36.2 51.3 43.6 51.6 46.2C51.8 48.8 52.4 49.8 53.5 50.4Z" fill="#2A2C23"/>
<path d="M91.2998 39.7001C90.8998 44.7001 86.3998 51.3001 76.3998 51.3001C66.6998 51.3001 57.2998 46.5001 56.9998 34.9001C56.5998 22.7001 67.6998 17.4001 75.4998 17.0001C81.4998 16.7001 89.6998 19.6001 90.6998 28.1001C90.0998 28.1001 85.6998 28.1001 85.6998 28.1001H84.1998C88.1998 29.2001 91.8998 33.3001 91.2998 39.7001ZM81.2998 28.1001H62.9998C62.0998 31.8001 62.2998 36.0001 63.4998 39.4001C66.0998 46.8001 71.3998 50.0001 78.5998 49.8001C84.6998 49.5001 89.8998 45.4001 90.5998 39.9001C91.4998 32.5001 86.5998 28.1001 81.2998 28.1001ZM63.1998 27.6001H85.6998C84.7998 21.5001 79.2998 16.5001 72.3998 17.9001C67.5998 18.8001 64.4998 22.8001 63.1998 27.6001Z" fill="#2A2C23"/>
<path d="M105 50.4C105 50.5 105 50.9 105 50.9H96.2998C96.2998 50.9 96.2998 50.5 96.2998 50.4C97.3998 49.8 97.7998 48.7 97.7998 46.2V5.5C97.7998 3 97.5998 2.3 96.2998 2.1C96.2998 2 96.2998 1.5 96.2998 1.5L102.9 0H103.4V46.1C103.4 48.7 103.9 49.8 105 50.4Z" fill="#2A2C23"/>
<path d="M146.6 32.6C146.6 43.9 136.9 51.3 127.5 51.3C118 51.3 109.9 45.5 109.9 35.7C109.9 24.1 119.6 17 129 17C138.4 17 146.6 22.9 146.6 32.6ZM140.7 30.4C138.2 21.9 131.6 16 123.6 18.3C115.6 20.6 113.4 29.4 115.9 38C118.4 46.5 125 52.5 133 50.1C141 47.7 143.1 38.9 140.7 30.4Z" fill="#2A2C23"/>
<path d="M186.5 50.9H179.4V32C178.1 40.2 174.5 51.3 164.6 51.3C158.9 51.3 151.8 46.4 151.6 37.4C151.2 20 167.4 17 175.2 17C176.8 17 178.2 17.3 179.4 17.6V5.5C179.4 3 179.2 2.3 177.8 2.1C177.8 2 177.8 1.5 177.8 1.5L184.5 0H185V46.1C185 48.6 185.5 49.6 186.5 50.3C186.5 50.5 186.5 50.9 186.5 50.9ZM179.4 27.9V18C179 17.9 177.4 17.4 175.2 17.4C168.4 17.5 156.1 20.5 157.1 38.5C157.5 44.6 161.7 51.3 167.8 50.1C175.7 48.5 179.4 33.8 179.4 27.9Z" fill="#2A2C23"/>
<path d="M216.4 30.5999C216.4 30.5999 210.8 44.5999 208.2 50.8999C205.7 57.1999 202.5 62.4999 196.9 62.4999C193.1 62.4999 190.3 60.6999 188.6 57.4999L194.1 52.4999L194.5 52.8999C193.8 56.7999 194.6 62.2999 198.4 61.7999C202.1 61.3999 205 56.6999 207.3 51.4999L198.3 30.2999C195.3 23.3999 193.9 20.3999 190.5 17.4999V16.8999H201.3V17.4999C199.5 19.3999 200.1 21.2999 201.7 25.2999L210.1 44.8999L215.9 30.4999C218.5 23.9999 219.4 20.0999 216.2 17.4999V16.8999H224.5V17.4999C221.5 20.6999 219 24.0999 216.4 30.5999Z" fill="#2A2C23"/>
</svg>
