<svg width="257" height="46" viewBox="0 0 257 46" fill="none" xmlns="http://www.w3.org/2000/svg">
<g clip-path="url(#clip0_64_211)">
<path d="M53.5 33.4C53.5 33.5 53.5 33.9 53.5 33.9H44.8C44.8 33.9 44.8 33.5 44.8 33.4C45.9 32.8 46.2 31.6 46 29.2C45.7 26.9 44.7 15 44.4 11.3C43.8 6 41.8 0 36.3 1.2C29.8 2.7 29 13.6 28.9 21V29.2C28.9 31.7 29.4 32.7 30.4 33.4C30.4 33.5 30.4 33.9 30.4 33.9H21.7C21.7 33.9 21.7 33.5 21.7 33.4C22.8 32.8 23.2 31.7 23.2 29.2V11.4C23.2 6 20.7 0.3 15.2 1.3C7.5 2.8 7.1 17.5 7.1 23.5V29.3C7.1 31.8 7.7 32.8 8.7 33.5C8.7 33.6 8.7 34 8.7 34H0C0 34 0 33.6 0 33.5C1.1 32.9 1.6 31.8 1.6 29.3V5.4C1.6 3 1.4 2.3 0 2.1C0 2 0 1.6 0 1.6L6.6 0H7.1V15.6C7.9 8.2 10 0 18.5 0C23.9 0 28.6 4.7 28.9 12.4L29 13.2C29.7 6.4 32.3 0 39.5 0C45 0 49 4.2 49.8 12.4C50.6 19.2 51.2 26.6 51.5 29.2C51.8 31.8 52.4 32.8 53.5 33.4Z" fill="white"/>
<path d="M91.3001 22.7001C90.9001 27.7001 86.4001 34.3001 76.4001 34.3001C66.7001 34.3001 57.3001 29.5001 57.0001 17.9001C56.7001 5.7001 67.8001 0.400101 75.5001 0.000100901C81.5001 -0.299899 89.7001 2.6001 90.7001 11.1001C90.1001 11.1001 85.7001 11.1001 85.7001 11.1001H84.2001C88.2001 12.2001 91.9001 16.3001 91.3001 22.7001ZM81.3001 11.2001H63.0001C62.1001 14.9001 62.3001 19.1001 63.5001 22.5001C66.1001 29.9001 71.4001 33.1001 78.6001 32.9001C84.7001 32.6001 89.9001 28.5001 90.6001 23.0001C91.5001 15.5001 86.6001 11.2001 81.3001 11.2001ZM63.2001 10.6001H85.7001C84.8001 4.5001 79.3001 -0.499899 72.4001 0.900101C67.6001 1.8001 64.5001 5.8001 63.2001 10.6001Z" fill="white"/>
<path d="M149.8 33.4C149.8 33.5 149.8 33.9 149.8 33.9H141.1C141.1 33.9 141.1 33.5 141.1 33.4C142.2 32.8 142.5 31.6 142.3 29.2C142 26.9 141 15 140.7 11.3C140.1 6 138.1 0 132.6 1.2C126.1 2.6 125.3 13.5 125.2 20.9V29.1C125.2 31.6 125.7 32.6 126.7 33.3C126.7 33.4 126.7 33.8 126.7 33.8H118C118 33.8 118 33.4 118 33.3C119.1 32.7 119.5 31.6 119.5 29.1V11.4C119.5 6 117 0.3 111.5 1.3C103.6 2.8 103.3 17.5 103.3 23.5V29.3C103.3 31.8 103.9 32.8 104.9 33.5C104.9 33.6 104.9 34 104.9 34H96.2002C96.2002 34 96.2002 33.6 96.2002 33.5C97.3002 32.9 97.8002 31.8 97.8002 29.3V5.4C97.8002 2.9 97.6002 2.2 96.2002 2C96.2002 1.9 96.2002 1.5 96.2002 1.5L102.8 0H103.3V15.6C104.2 8.2 106.3 0 114.8 0C120.2 0 124.9 4.7 125.2 12.4L125.3 13.2C126 6.4 128.6 0 135.8 0C141.4 0 145.3 4.2 146.2 12.4C147 19.2 147.6 26.6 147.9 29.2C148.1 31.8 148.7 32.8 149.8 33.4Z" fill="white"/>
<path d="M190 15.7001C190 27.0001 180.3 34.4001 170.9 34.4001C161.4 34.4001 153.3 28.6001 153.3 18.8001C153.3 7.20013 163 0.100128 172.4 0.100128C181.8 0.000128172 190 5.90013 190 15.7001ZM184.1 13.4001C181.6 5.00013 175 -0.999872 167 1.30013C159 3.60013 156.8 12.4001 159.3 21.0001C161.8 29.5001 168.4 35.5001 176.4 33.1001C184.4 30.7001 186.5 21.9001 184.1 13.4001Z" fill="white"/>
<path d="M220.6 4.2L216.3 10.3L215.8 10C215.7 6 213.7 0.8 209.9 1.3C203 2.4 202.1 20.5 202.1 26.5V29.2C202.1 31.7 202.6 32.7 203.6 33.4C203.6 33.5 203.6 33.9 203.6 33.9H194.9C194.9 33.9 194.9 33.5 194.9 33.4C196 32.8 196.5 31.7 196.5 29.2V5.4C196.5 2.9 196.3 2.2 194.9 2C194.9 1.9 194.9 1.5 194.9 1.5L201.5 0H202.1V18.9C202.8 10.4 204.8 0 212.2 0C216.1 0 218.2 1.4 220.6 4.2Z" fill="white"/>
<path d="M248.4 13.6C248.4 13.6 242.8 27.6 240.2 33.9C237.7 40.2 234.5 45.5 228.9 45.5C225.1 45.5 222.3 43.7 220.6 40.5L226.1 35.5L226.5 35.9C225.8 39.8 226.6 45.3 230.4 44.8C234.1 44.4 237 39.7 239.3 34.5L230.3 13.3C227.3 6.4 225.9 3.4 222.5 0.5V0H233.3V0.6C231.5 2.5 232.1 4.4 233.7 8.3L242.1 27.9L247.9 13.5C250.5 7 251.4 3.1 248.2 0.5V0H256.5V0.6C253.5 3.7 251 7.1 248.4 13.6Z" fill="white"/>
</g>
<defs>
<clipPath id="clip0_64_211">
<rect width="256.5" height="45.5" fill="white"/>
</clipPath>
</defs>
</svg>
